<svg width="105" height="32" viewBox="0 0 105 32" fill="none" xmlns="http://www.w3.org/2000/svg">
<mask id="path-1-outside-1_101_39" maskUnits="userSpaceOnUse" x="0" y="-1" width="105" height="34" fill="black">
<rect fill="white" y="-1" width="105" height="34"/>
<path d="M0.279161 16.5809C0.279161 13.8094 0.95072 11.6668 2.29384 10.1531C3.63696 8.63941 5.65164 7.88257 8.33787 7.88257C9.59572 7.88257 10.8642 8.20236 12.1434 8.84194V0.0477142H14.3819V21.7295C14.3819 22.3478 14.4992 22.8274 14.7337 23.1685C14.9895 23.4883 15.2453 23.6589 15.5012 23.6802L15.8529 23.7442H16.8443V24H14.8936C14.0195 24 13.3479 23.8081 12.8789 23.4244C12.4312 23.0406 12.1967 22.6569 12.1754 22.2731L12.1434 21.7295V21.2178C11.7383 21.964 11.0668 22.6249 10.1287 23.2005C9.19065 23.7761 8.08204 24.064 6.80288 24.064C2.45373 23.9574 0.279161 21.463 0.279161 16.5809ZM6.83486 23.8081C8.26326 23.8081 9.48912 23.4244 10.5124 22.6569C11.5358 21.8894 12.0794 21.1325 12.1434 20.3864V9.12976C10.6297 8.46886 9.32922 8.13841 8.24194 8.13841C6.34451 8.13841 4.91612 8.88458 3.95675 10.3769C2.99738 11.848 2.51769 13.9159 2.51769 16.5809C2.51769 21.399 3.95675 23.8081 6.83486 23.8081ZM31.9744 24C30.5247 24 29.5333 23.7228 29.0003 23.1685C28.51 22.6995 28.2648 22.2945 28.2648 21.9533V21.2818C27.2202 23.1792 25.5466 24.1279 23.2441 24.1279C20.5579 24.1279 19.0335 22.9127 18.6711 20.4823C18.6285 20.2265 18.6071 19.9706 18.6071 19.7148C18.6071 19.4377 18.6498 19.1392 18.7351 18.8194C18.8203 18.4996 19.0655 18.1478 19.4706 17.7641C20.2807 16.9966 22.0609 16.5276 24.8111 16.357C25.4933 16.2931 26.1222 16.2611 26.6978 16.2611C27.2735 16.2611 27.7958 16.2824 28.2648 16.325V11.0165C28.2222 10.9952 28.2222 10.8993 28.2648 10.7287C28.3074 10.5368 28.2648 10.3023 28.1369 10.0252C28.0303 9.7267 27.8811 9.43889 27.6892 9.16173C27.4973 8.88458 27.1562 8.65007 26.6658 8.4582C26.1755 8.245 25.5359 8.13841 24.7471 8.13841C23.9583 8.13841 23.0309 8.28764 21.9649 8.58611C20.9203 8.86326 20.1528 9.14042 19.6624 9.41757L19.5345 9.19371C21.432 8.31962 23.3614 7.88257 25.3227 7.88257C27.5186 7.88257 28.9683 8.27698 29.6719 9.0658C30.2262 9.68406 30.5033 10.3343 30.5033 11.0165V21.7295C30.5033 22.3478 30.6206 22.8274 30.8551 23.1685C31.1109 23.4883 31.3668 23.6589 31.6226 23.6802L31.9744 23.7442H32.9657V24H31.9744ZM23.7558 23.8721C24.8857 23.8721 25.8984 23.4883 26.7938 22.7208C27.7105 21.932 28.2008 21.1752 28.2648 20.4503V16.5809C27.6892 16.5382 27.1029 16.5169 26.506 16.5169C25.9303 16.5169 25.3547 16.5489 24.7791 16.6128C23.1588 16.8047 22.1035 17.1671 21.6132 17.7001C21.1228 18.2331 20.8776 18.9686 20.8776 19.9067C20.8776 20.0772 20.8883 20.2691 20.9096 20.4823C21.1015 22.7422 22.0502 23.8721 23.7558 23.8721ZM37.6906 29.7242C37.0084 31.2379 36.1663 31.9948 35.1643 31.9948C34.7166 31.9948 34.1942 31.9201 33.5973 31.7709V31.5151C34.0876 31.643 34.5247 31.7069 34.9084 31.7069C35.9957 31.7069 36.8272 31.046 37.4028 29.7242L40.089 24H40.0571L34.109 8.01049H36.3475L41.3042 21.3457L46.197 11.2084C46.4529 10.7607 46.5808 10.2277 46.5808 9.60944C46.5808 8.99118 46.4102 8.52215 46.0691 8.20236L46.261 8.01049C46.3463 8.05313 46.4529 8.18104 46.5808 8.39424C46.73 8.60743 46.8153 8.79931 46.8366 8.96986C46.8793 9.14042 46.9006 9.30031 46.9006 9.44955C46.9006 10.0252 46.7727 10.6114 46.5168 11.2084L40.3769 24L37.6906 29.7242ZM48.6849 16.5809C48.6849 13.8094 49.3565 11.6668 50.6996 10.1531C52.0427 8.63941 54.0574 7.88257 56.7436 7.88257C58.0015 7.88257 59.27 8.20236 60.5491 8.84194V0.0477142H62.7877V21.7295C62.7877 22.3478 62.9049 22.8274 63.1394 23.1685C63.3953 23.4883 63.6511 23.6589 63.9069 23.6802L64.2587 23.7442H65.25V24H63.2993C62.4252 24 61.7537 23.8081 61.2846 23.4244C60.8369 23.0406 60.6024 22.6569 60.5811 22.2731L60.5491 21.7295V21.2178C60.1441 21.964 59.4725 22.6249 58.5344 23.2005C57.5964 23.7761 56.4878 24.064 55.2086 24.064C50.8595 23.9574 48.6849 21.463 48.6849 16.5809ZM55.2406 23.8081C56.669 23.8081 57.8949 23.4244 58.9182 22.6569C59.9415 21.8894 60.4852 21.1325 60.5491 20.3864V9.12976C59.0354 8.46886 57.735 8.13841 56.6477 8.13841C54.7503 8.13841 53.3219 8.88458 52.3625 10.3769C51.4031 11.848 50.9234 13.9159 50.9234 16.5809C50.9234 21.399 52.3625 23.8081 55.2406 23.8081ZM70.0359 20.3224C70.0359 22.0066 70.4836 23.0833 71.379 23.5523C71.8054 23.7655 72.349 23.8721 73.0099 23.8721C74.3531 23.8721 75.5469 23.3604 76.5916 22.3371C77.6576 21.3138 78.2332 20.3651 78.3185 19.491V8.01049H80.557V21.7295C80.557 22.3478 80.6742 22.8274 80.9088 23.1685C81.1646 23.4883 81.4204 23.6589 81.6763 23.6802L82.028 23.7442H83.0194V24H81.0687C80.1946 24 79.523 23.8081 79.054 23.4244C78.6063 23.0406 78.3718 22.6569 78.3504 22.2731L78.3185 21.7295V20.3544C77.9347 21.2711 77.2525 22.1346 76.2718 22.9447C75.2911 23.7335 74.2145 24.1279 73.0419 24.1279C71.8907 24.1279 70.942 24.0213 70.1958 23.8081C69.4709 23.5736 68.9486 23.2538 68.6288 22.8488C68.0745 22.1879 67.7974 21.3351 67.7974 20.2904V8.01049H70.0359V20.3224ZM88.6914 24C86.8153 24 85.6321 23.5097 85.1417 22.529C85.0351 22.3158 84.9818 22.1239 84.9818 21.9533V0.0477142H87.2204V21.7295C87.2204 22.3478 87.3376 22.8274 87.5721 23.1685C87.828 23.4883 88.0838 23.6589 88.3396 23.6802L88.6914 23.7442H89.6828V24H88.6914ZM92.6758 16.1971C92.6758 18.8407 93.1342 20.7808 94.0509 22.0173C94.9889 23.2538 96.2148 23.8721 97.7285 23.8721C99.8604 23.8721 101.758 23.5523 103.421 22.9127L103.517 23.1366C101.811 23.7975 99.8817 24.1279 97.7285 24.1279C95.5965 24.1279 93.859 23.4883 92.5159 22.2092C91.1728 20.93 90.5012 18.958 90.5012 16.2931C90.5012 13.6281 91.2048 11.5602 92.6118 10.0891C94.0189 8.61809 95.8097 7.88257 97.9843 7.88257C99.7325 7.88257 101.204 8.4049 102.397 9.44955C103.591 10.4942 104.188 12.0398 104.188 14.0865C104.188 14.1931 104.188 14.2997 104.188 14.4063H92.7717C92.7078 14.9819 92.6758 15.5789 92.6758 16.1971ZM102.014 14.1505C101.992 12.1038 101.598 10.5901 100.83 9.60944C100.063 8.62875 99.0716 8.13841 97.8564 8.13841C96.6412 8.13841 95.5539 8.67139 94.5945 9.73736C93.6565 10.8033 93.0595 12.2744 92.8037 14.1505H102.014Z"/>
</mask>
<path d="M0.279161 16.5809C0.279161 13.8094 0.95072 11.6668 2.29384 10.1531C3.63696 8.63941 5.65164 7.88257 8.33787 7.88257C9.59572 7.88257 10.8642 8.20236 12.1434 8.84194V0.0477142H14.3819V21.7295C14.3819 22.3478 14.4992 22.8274 14.7337 23.1685C14.9895 23.4883 15.2453 23.6589 15.5012 23.6802L15.8529 23.7442H16.8443V24H14.8936C14.0195 24 13.3479 23.8081 12.8789 23.4244C12.4312 23.0406 12.1967 22.6569 12.1754 22.2731L12.1434 21.7295V21.2178C11.7383 21.964 11.0668 22.6249 10.1287 23.2005C9.19065 23.7761 8.08204 24.064 6.80288 24.064C2.45373 23.9574 0.279161 21.463 0.279161 16.5809ZM6.83486 23.8081C8.26326 23.8081 9.48912 23.4244 10.5124 22.6569C11.5358 21.8894 12.0794 21.1325 12.1434 20.3864V9.12976C10.6297 8.46886 9.32922 8.13841 8.24194 8.13841C6.34451 8.13841 4.91612 8.88458 3.95675 10.3769C2.99738 11.848 2.51769 13.9159 2.51769 16.5809C2.51769 21.399 3.95675 23.8081 6.83486 23.8081ZM31.9744 24C30.5247 24 29.5333 23.7228 29.0003 23.1685C28.51 22.6995 28.2648 22.2945 28.2648 21.9533V21.2818C27.2202 23.1792 25.5466 24.1279 23.2441 24.1279C20.5579 24.1279 19.0335 22.9127 18.6711 20.4823C18.6285 20.2265 18.6071 19.9706 18.6071 19.7148C18.6071 19.4377 18.6498 19.1392 18.7351 18.8194C18.8203 18.4996 19.0655 18.1478 19.4706 17.7641C20.2807 16.9966 22.0609 16.5276 24.8111 16.357C25.4933 16.2931 26.1222 16.2611 26.6978 16.2611C27.2735 16.2611 27.7958 16.2824 28.2648 16.325V11.0165C28.2222 10.9952 28.2222 10.8993 28.2648 10.7287C28.3074 10.5368 28.2648 10.3023 28.1369 10.0252C28.0303 9.7267 27.8811 9.43889 27.6892 9.16173C27.4973 8.88458 27.1562 8.65007 26.6658 8.4582C26.1755 8.245 25.5359 8.13841 24.7471 8.13841C23.9583 8.13841 23.0309 8.28764 21.9649 8.58611C20.9203 8.86326 20.1528 9.14042 19.6624 9.41757L19.5345 9.19371C21.432 8.31962 23.3614 7.88257 25.3227 7.88257C27.5186 7.88257 28.9683 8.27698 29.6719 9.0658C30.2262 9.68406 30.5033 10.3343 30.5033 11.0165V21.7295C30.5033 22.3478 30.6206 22.8274 30.8551 23.1685C31.1109 23.4883 31.3668 23.6589 31.6226 23.6802L31.9744 23.7442H32.9657V24H31.9744ZM23.7558 23.8721C24.8857 23.8721 25.8984 23.4883 26.7938 22.7208C27.7105 21.932 28.2008 21.1752 28.2648 20.4503V16.5809C27.6892 16.5382 27.1029 16.5169 26.506 16.5169C25.9303 16.5169 25.3547 16.5489 24.7791 16.6128C23.1588 16.8047 22.1035 17.1671 21.6132 17.7001C21.1228 18.2331 20.8776 18.9686 20.8776 19.9067C20.8776 20.0772 20.8883 20.2691 20.9096 20.4823C21.1015 22.7422 22.0502 23.8721 23.7558 23.8721ZM37.6906 29.7242C37.0084 31.2379 36.1663 31.9948 35.1643 31.9948C34.7166 31.9948 34.1942 31.9201 33.5973 31.7709V31.5151C34.0876 31.643 34.5247 31.7069 34.9084 31.7069C35.9957 31.7069 36.8272 31.046 37.4028 29.7242L40.089 24H40.0571L34.109 8.01049H36.3475L41.3042 21.3457L46.197 11.2084C46.4529 10.7607 46.5808 10.2277 46.5808 9.60944C46.5808 8.99118 46.4102 8.52215 46.0691 8.20236L46.261 8.01049C46.3463 8.05313 46.4529 8.18104 46.5808 8.39424C46.73 8.60743 46.8153 8.79931 46.8366 8.96986C46.8793 9.14042 46.9006 9.30031 46.9006 9.44955C46.9006 10.0252 46.7727 10.6114 46.5168 11.2084L40.3769 24L37.6906 29.7242ZM48.6849 16.5809C48.6849 13.8094 49.3565 11.6668 50.6996 10.1531C52.0427 8.63941 54.0574 7.88257 56.7436 7.88257C58.0015 7.88257 59.27 8.20236 60.5491 8.84194V0.0477142H62.7877V21.7295C62.7877 22.3478 62.9049 22.8274 63.1394 23.1685C63.3953 23.4883 63.6511 23.6589 63.9069 23.6802L64.2587 23.7442H65.25V24H63.2993C62.4252 24 61.7537 23.8081 61.2846 23.4244C60.8369 23.0406 60.6024 22.6569 60.5811 22.2731L60.5491 21.7295V21.2178C60.1441 21.964 59.4725 22.6249 58.5344 23.2005C57.5964 23.7761 56.4878 24.064 55.2086 24.064C50.8595 23.9574 48.6849 21.463 48.6849 16.5809ZM55.2406 23.8081C56.669 23.8081 57.8949 23.4244 58.9182 22.6569C59.9415 21.8894 60.4852 21.1325 60.5491 20.3864V9.12976C59.0354 8.46886 57.735 8.13841 56.6477 8.13841C54.7503 8.13841 53.3219 8.88458 52.3625 10.3769C51.4031 11.848 50.9234 13.9159 50.9234 16.5809C50.9234 21.399 52.3625 23.8081 55.2406 23.8081ZM70.0359 20.3224C70.0359 22.0066 70.4836 23.0833 71.379 23.5523C71.8054 23.7655 72.349 23.8721 73.0099 23.8721C74.3531 23.8721 75.5469 23.3604 76.5916 22.3371C77.6576 21.3138 78.2332 20.3651 78.3185 19.491V8.01049H80.557V21.7295C80.557 22.3478 80.6742 22.8274 80.9088 23.1685C81.1646 23.4883 81.4204 23.6589 81.6763 23.6802L82.028 23.7442H83.0194V24H81.0687C80.1946 24 79.523 23.8081 79.054 23.4244C78.6063 23.0406 78.3718 22.6569 78.3504 22.2731L78.3185 21.7295V20.3544C77.9347 21.2711 77.2525 22.1346 76.2718 22.9447C75.2911 23.7335 74.2145 24.1279 73.0419 24.1279C71.8907 24.1279 70.942 24.0213 70.1958 23.8081C69.4709 23.5736 68.9486 23.2538 68.6288 22.8488C68.0745 22.1879 67.7974 21.3351 67.7974 20.2904V8.01049H70.0359V20.3224ZM88.6914 24C86.8153 24 85.6321 23.5097 85.1417 22.529C85.0351 22.3158 84.9818 22.1239 84.9818 21.9533V0.0477142H87.2204V21.7295C87.2204 22.3478 87.3376 22.8274 87.5721 23.1685C87.828 23.4883 88.0838 23.6589 88.3396 23.6802L88.6914 23.7442H89.6828V24H88.6914ZM92.6758 16.1971C92.6758 18.8407 93.1342 20.7808 94.0509 22.0173C94.9889 23.2538 96.2148 23.8721 97.7285 23.8721C99.8604 23.8721 101.758 23.5523 103.421 22.9127L103.517 23.1366C101.811 23.7975 99.8817 24.1279 97.7285 24.1279C95.5965 24.1279 93.859 23.4883 92.5159 22.2092C91.1728 20.93 90.5012 18.958 90.5012 16.2931C90.5012 13.6281 91.2048 11.5602 92.6118 10.0891C94.0189 8.61809 95.8097 7.88257 97.9843 7.88257C99.7325 7.88257 101.204 8.4049 102.397 9.44955C103.591 10.4942 104.188 12.0398 104.188 14.0865C104.188 14.1931 104.188 14.2997 104.188 14.4063H92.7717C92.7078 14.9819 92.6758 15.5789 92.6758 16.1971ZM102.014 14.1505C101.992 12.1038 101.598 10.5901 100.83 9.60944C100.063 8.62875 99.0716 8.13841 97.8564 8.13841C96.6412 8.13841 95.5539 8.67139 94.5945 9.73736C93.6565 10.8033 93.0595 12.2744 92.8037 14.1505H102.014Z" fill="#C06526"/>
<path d="M2.29384 10.1531L2.14424 10.0203L2.14424 10.0203L2.29384 10.1531ZM12.1434 8.84194L12.0539 9.02083L12.3434 9.16555V8.84194H12.1434ZM12.1434 0.0477142V-0.152286H11.9434V0.0477142H12.1434ZM14.3819 0.0477142H14.5819V-0.152286H14.3819V0.0477142ZM14.7337 23.1685L14.5689 23.2819L14.573 23.2878L14.5775 23.2935L14.7337 23.1685ZM15.5012 23.6802L15.537 23.4834L15.5274 23.4817L15.5178 23.4809L15.5012 23.6802ZM15.8529 23.7442L15.8172 23.9409L15.8349 23.9442H15.8529V23.7442ZM16.8443 23.7442H17.0443V23.5442H16.8443V23.7442ZM16.8443 24V24.2H17.0443V24H16.8443ZM12.8789 23.4244L12.7487 23.5763L12.7522 23.5792L12.8789 23.4244ZM12.1754 22.2731L12.3751 22.262L12.375 22.2614L12.1754 22.2731ZM12.1434 21.7295H11.943L11.9437 21.7412L12.1434 21.7295ZM12.1434 21.2178H12.3434L11.9676 21.1224L12.1434 21.2178ZM10.1287 23.2005L10.2333 23.371L10.1287 23.2005ZM6.80288 24.064L6.79798 24.264H6.80288V24.064ZM10.5124 22.6569L10.3924 22.4969L10.3924 22.4969L10.5124 22.6569ZM12.1434 20.3864L12.3426 20.4035L12.3434 20.3949V20.3864H12.1434ZM12.1434 9.12976H12.3434V8.99885L12.2234 8.94646L12.1434 9.12976ZM3.95675 10.3769L4.12427 10.4862L4.12498 10.4851L3.95675 10.3769ZM0.479161 16.5809C0.479161 13.8401 1.14311 11.7513 2.44344 10.2858L2.14424 10.0203C0.758332 11.5822 0.0791609 13.7786 0.0791609 16.5809H0.479161ZM2.44344 10.2858C3.73721 8.82776 5.68907 8.08257 8.33787 8.08257V7.68257C5.6142 7.68257 3.5367 8.45106 2.14424 10.0203L2.44344 10.2858ZM8.33787 8.08257C9.56065 8.08257 10.7987 8.39322 12.0539 9.02083L12.2328 8.66306C10.9297 8.01151 9.63078 7.68257 8.33787 7.68257V8.08257ZM12.3434 8.84194V0.0477142H11.9434V8.84194H12.3434ZM12.1434 0.247714H14.3819V-0.152286H12.1434V0.247714ZM14.1819 0.0477142V21.7295H14.5819V0.0477142H14.1819ZM14.1819 21.7295C14.1819 22.3694 14.3027 22.8947 14.5689 23.2819L14.8985 23.0552C14.6956 22.7602 14.5819 22.3261 14.5819 21.7295H14.1819ZM14.5775 23.2935C14.8478 23.6314 15.1488 23.8515 15.4846 23.8795L15.5178 23.4809C15.3419 23.4662 15.1312 23.3453 14.8899 23.0436L14.5775 23.2935ZM15.4654 23.877L15.8172 23.9409L15.8887 23.5474L15.537 23.4834L15.4654 23.877ZM15.8529 23.9442H16.8443V23.5442H15.8529V23.9442ZM16.6443 23.7442V24H17.0443V23.7442H16.6443ZM16.8443 23.8H14.8936V24.2H16.8443V23.8ZM14.8936 23.8C14.0457 23.8 13.426 23.6136 13.0055 23.2696L12.7522 23.5792C13.2699 24.0027 13.9932 24.2 14.8936 24.2V23.8ZM13.0091 23.2725C12.5809 22.9056 12.3921 22.5681 12.375 22.262L11.9757 22.2842C12.0013 22.7456 12.2814 23.1757 12.7487 23.5762L13.0091 23.2725ZM12.375 22.2614L12.343 21.7177L11.9437 21.7412L11.9757 22.2849L12.375 22.2614ZM12.3434 21.7295V21.2178H11.9434V21.7295H12.3434ZM11.9676 21.1224C11.5835 21.8299 10.9409 22.4675 10.0241 23.0301L10.2333 23.371C11.1926 22.7823 11.8931 22.0981 12.3191 21.3132L11.9676 21.1224ZM10.0241 23.0301C9.12233 23.5834 8.05121 23.864 6.80288 23.864V24.264C8.11288 24.264 9.25896 23.9689 10.2333 23.371L10.0241 23.0301ZM6.80778 23.864C4.6707 23.8116 3.10061 23.1745 2.06085 21.9818C1.01745 20.785 0.479161 18.996 0.479161 16.5809H0.0791609C0.0791609 19.0479 0.628155 20.9471 1.75934 22.2447C2.89414 23.5464 4.58591 24.2097 6.79798 24.2639L6.80778 23.864ZM6.83486 24.0081C8.30122 24.0081 9.57048 23.6134 10.6324 22.8169L10.3924 22.4969C9.40775 23.2354 8.22529 23.6081 6.83486 23.6081V24.0081ZM10.6324 22.8169C11.6706 22.0382 12.2713 21.2358 12.3426 20.4035L11.9441 20.3693C11.8875 21.0293 11.4009 21.7405 10.3924 22.4969L10.6324 22.8169ZM12.3434 20.3864V9.12976H11.9434V20.3864H12.3434ZM12.2234 8.94646C10.6963 8.27971 9.36727 7.93841 8.24194 7.93841V8.33841C9.29118 8.33841 10.5631 8.658 12.0633 9.31305L12.2234 8.94646ZM8.24194 7.93841C6.28212 7.93841 4.78764 8.71458 3.78851 10.2688L4.12498 10.4851C5.04459 9.05459 6.4069 8.33841 8.24194 8.33841V7.93841ZM3.78923 10.2677C2.80035 11.784 2.31769 13.8959 2.31769 16.5809H2.71769C2.71769 13.936 3.19441 11.912 4.12427 10.4862L3.78923 10.2677ZM2.31769 16.5809C2.31769 19.0033 2.67829 20.8534 3.42528 22.1039C4.18203 23.3707 5.32763 24.0081 6.83486 24.0081V23.6081C5.46398 23.6081 4.45099 23.041 3.76868 21.8987C3.07662 20.7402 2.71769 18.9766 2.71769 16.5809H2.31769ZM29.0003 23.1685L29.1446 23.0298L29.1386 23.024L29.0003 23.1685ZM28.2648 21.2818H28.4648L28.0896 21.1853L28.2648 21.2818ZM18.6711 20.4823L18.8689 20.4528L18.8684 20.4494L18.6711 20.4823ZM19.4706 17.7641L19.333 17.6189L19.333 17.6189L19.4706 17.7641ZM24.8111 16.357L24.8235 16.5567L24.8297 16.5561L24.8111 16.357ZM28.2648 16.325L28.2467 16.5242L28.4648 16.544V16.325H28.2648ZM28.2648 11.0165H28.4648V10.8929L28.3542 10.8376L28.2648 11.0165ZM28.2648 10.7287L28.4589 10.7772L28.46 10.7721L28.2648 10.7287ZM28.1369 10.0252L27.9485 10.0924L27.9515 10.1009L27.9553 10.109L28.1369 10.0252ZM27.6892 9.16173L27.5247 9.27558L27.5247 9.27558L27.6892 9.16173ZM26.6658 8.4582L26.586 8.64174L26.593 8.64444L26.6658 8.4582ZM21.9649 8.58611L22.0162 8.77944L22.0189 8.7787L21.9649 8.58611ZM19.6624 9.41757L19.4888 9.51679L19.5876 9.68963L19.7609 9.59168L19.6624 9.41757ZM19.5345 9.19371L19.4508 9.01206L19.2526 9.1034L19.3609 9.29294L19.5345 9.19371ZM29.6719 9.0658L29.5226 9.19892L29.523 9.19931L29.6719 9.0658ZM30.8551 23.1685L30.6903 23.2819L30.6944 23.2878L30.6989 23.2935L30.8551 23.1685ZM31.6226 23.6802L31.6584 23.4834L31.6489 23.4817L31.6392 23.4809L31.6226 23.6802ZM31.9744 23.7442L31.9386 23.9409L31.9563 23.9442H31.9744V23.7442ZM32.9657 23.7442H33.1657V23.5442H32.9657V23.7442ZM32.9657 24V24.2H33.1657V24H32.9657ZM26.7938 22.7208L26.9239 22.8727L26.9242 22.8724L26.7938 22.7208ZM28.2648 20.4503L28.464 20.4679L28.4648 20.4591V20.4503H28.2648ZM28.2648 16.5809H28.4648V16.3951L28.2796 16.3814L28.2648 16.5809ZM24.7791 16.6128L24.757 16.4141L24.7556 16.4142L24.7791 16.6128ZM21.6132 17.7001L21.7604 17.8355L21.6132 17.7001ZM20.9096 20.4823L21.1089 20.4654L21.1086 20.4624L20.9096 20.4823ZM31.9744 23.8C30.5358 23.8 29.6177 23.5221 29.1445 23.0299L28.8562 23.3072C29.4489 23.9236 30.5135 24.2 31.9744 24.2V23.8ZM29.1386 23.024C28.6535 22.56 28.4648 22.206 28.4648 21.9533H28.0648C28.0648 22.383 28.3665 22.839 28.8621 23.3131L29.1386 23.024ZM28.4648 21.9533V21.2818H28.0648V21.9533H28.4648ZM28.0896 21.1853C27.5828 22.1058 26.9282 22.7885 26.1275 23.2424C25.3262 23.6966 24.3676 23.9279 23.2441 23.9279V24.3279C24.4231 24.3279 25.4525 24.0848 26.3248 23.5904C27.1977 23.0955 27.9021 22.3552 28.44 21.3782L28.0896 21.1853ZM23.2441 23.9279C21.9293 23.9279 20.9263 23.6305 20.2108 23.0601C19.4978 22.4917 19.0447 21.6316 18.8689 20.4528L18.4733 20.5118C18.6599 21.7635 19.1502 22.7261 19.9615 23.3729C20.7704 24.0177 21.8726 24.3279 23.2441 24.3279V23.9279ZM18.8684 20.4494C18.8275 20.2043 18.8071 19.9595 18.8071 19.7148H18.4071C18.4071 19.9818 18.4294 20.2486 18.4738 20.5152L18.8684 20.4494ZM18.8071 19.7148C18.8071 19.458 18.8467 19.1771 18.9283 18.8709L18.5418 18.7679C18.4529 19.1013 18.4071 19.4173 18.4071 19.7148H18.8071ZM18.9283 18.8709C18.9995 18.6038 19.2136 18.2831 19.6081 17.9093L19.333 17.6189C18.9174 18.0126 18.6411 18.3955 18.5418 18.7679L18.9283 18.8709ZM19.6081 17.9093C19.9779 17.559 20.5879 17.261 21.4643 17.0301C22.3372 16.8001 23.4556 16.6415 24.8234 16.5566L24.7987 16.1574C23.4163 16.2431 22.2696 16.4043 21.3623 16.6433C20.4585 16.8814 19.7734 17.2017 19.333 17.6189L19.6081 17.9093ZM24.8297 16.5561C25.5069 16.4927 26.1295 16.4611 26.6978 16.4611V16.0611C26.1149 16.0611 25.4797 16.0935 24.7924 16.1579L24.8297 16.5561ZM26.6978 16.4611C27.2687 16.4611 27.7848 16.4822 28.2467 16.5242L28.2829 16.1259C27.8067 16.0826 27.2782 16.0611 26.6978 16.0611V16.4611ZM28.4648 16.325V11.0165H28.0648V16.325H28.4648ZM28.3542 10.8376C28.4021 10.8616 28.4222 10.9001 28.4288 10.9182C28.4345 10.9339 28.4328 10.9404 28.4328 10.9286C28.4328 10.9052 28.4388 10.8574 28.4588 10.7772L28.0708 10.6802C28.0482 10.7705 28.0328 10.856 28.0328 10.9286C28.0328 10.9647 28.0365 11.0098 28.0529 11.0549C28.0701 11.1023 28.1062 11.1608 28.1754 11.1954L28.3542 10.8376ZM28.46 10.7721C28.5161 10.5196 28.4552 10.2376 28.3185 9.94136L27.9553 10.109C28.0744 10.367 28.0987 10.5541 28.0696 10.6853L28.46 10.7721ZM28.3252 9.9579C28.2124 9.64191 28.0548 9.33854 27.8536 9.04789L27.5247 9.27558C27.7073 9.53923 27.8482 9.81148 27.9485 10.0924L28.3252 9.9579ZM27.8536 9.04789C27.6297 8.72441 27.2469 8.47079 26.7387 8.27195L26.593 8.64444C27.0655 8.82935 27.3649 9.04476 27.5247 9.27558L27.8536 9.04789ZM26.7456 8.27478C26.2211 8.04673 25.5515 7.93841 24.7471 7.93841V8.33841C25.5204 8.33841 26.1299 8.44327 26.5861 8.64161L26.7456 8.27478ZM24.7471 7.93841C23.9344 7.93841 22.9881 8.09195 21.911 8.39352L22.0189 8.7787C23.0737 8.48334 23.9822 8.33841 24.7471 8.33841V7.93841ZM21.9136 8.3928C20.8647 8.6711 20.0772 8.95343 19.564 9.24345L19.7609 9.59168C20.2284 9.32741 20.9759 9.05543 22.0162 8.77942L21.9136 8.3928ZM19.8361 9.31834L19.7082 9.09449L19.3609 9.29294L19.4888 9.51679L19.8361 9.31834ZM19.6182 9.37536C21.4911 8.51256 23.3921 8.08257 25.3227 8.08257V7.68257C23.3306 7.68257 21.3728 8.12668 19.4508 9.01206L19.6182 9.37536ZM25.3227 8.08257C26.4103 8.08257 27.3026 8.18042 28.0044 8.37137C28.707 8.5625 29.2053 8.84319 29.5226 9.19892L29.8211 8.93267C29.4349 8.49959 28.8566 8.18867 28.1094 7.98539C27.3616 7.78193 26.431 7.68257 25.3227 7.68257V8.08257ZM29.523 9.19931C30.0519 9.78923 30.3033 10.3937 30.3033 11.0165H30.7033C30.7033 10.2749 30.4005 9.57889 29.8208 8.93229L29.523 9.19931ZM30.3033 11.0165V21.7295H30.7033V11.0165H30.3033ZM30.3033 21.7295C30.3033 22.3694 30.4241 22.8947 30.6903 23.2819L31.0199 23.0552C30.8171 22.7602 30.7033 22.3261 30.7033 21.7295H30.3033ZM30.6989 23.2935C30.9692 23.6314 31.2702 23.8515 31.606 23.8795L31.6392 23.4809C31.4633 23.4662 31.2526 23.3453 31.0113 23.0436L30.6989 23.2935ZM31.5868 23.877L31.9386 23.9409L32.0101 23.5474L31.6584 23.4834L31.5868 23.877ZM31.9744 23.9442H32.9657V23.5442H31.9744V23.9442ZM32.7657 23.7442V24H33.1657V23.7442H32.7657ZM32.9657 23.8H31.9744V24.2H32.9657V23.8ZM23.7558 24.0721C24.9357 24.0721 25.994 23.6698 26.9239 22.8727L26.6636 22.569C25.8027 23.3069 24.8357 23.6721 23.7558 23.6721V24.0721ZM26.9242 22.8724C27.8558 22.0708 28.3933 21.27 28.464 20.4679L28.0656 20.4327C28.0084 21.0804 27.5652 21.7932 26.6633 22.5692L26.9242 22.8724ZM28.4648 20.4503V16.5809H28.0648V20.4503H28.4648ZM28.2796 16.3814C27.6989 16.3384 27.1077 16.3169 26.506 16.3169V16.7169C27.0981 16.7169 27.6795 16.7381 28.25 16.7803L28.2796 16.3814ZM26.506 16.3169C25.9229 16.3169 25.3399 16.3493 24.757 16.4141L24.8012 16.8116C25.3695 16.7485 25.9378 16.7169 26.506 16.7169V16.3169ZM24.7556 16.4142C23.9372 16.5112 23.2531 16.652 22.7074 16.8394C22.1638 17.0261 21.7426 17.264 21.466 17.5647L21.7604 17.8355C21.974 17.6033 22.3257 17.3935 22.8374 17.2177C23.347 17.0427 24.0007 16.9064 24.8026 16.8115L24.7556 16.4142ZM21.466 17.5647C20.9326 18.1445 20.6776 18.9337 20.6776 19.9067H21.0776C21.0776 19.0035 21.3131 18.3217 21.7604 17.8355L21.466 17.5647ZM20.6776 19.9067C20.6776 20.0853 20.6888 20.284 20.7106 20.5022L21.1086 20.4624C21.0878 20.2542 21.0776 20.0692 21.0776 19.9067H20.6776ZM20.7103 20.4992C20.808 21.6496 21.1003 22.5439 21.6119 23.1532C22.1304 23.7708 22.8542 24.0721 23.7558 24.0721V23.6721C22.9518 23.6721 22.3484 23.4084 21.9182 22.896C21.4812 22.3755 21.2031 21.5749 21.1089 20.4654L20.7103 20.4992ZM37.6906 29.7242L37.5095 29.6393L37.5083 29.6421L37.6906 29.7242ZM33.5973 31.7709H33.3973V31.9271L33.5488 31.9649L33.5973 31.7709ZM33.5973 31.5151L33.6478 31.3215L33.3973 31.2562V31.5151H33.5973ZM37.4028 29.7242L37.2217 29.6392L37.2194 29.6444L37.4028 29.7242ZM40.089 24L40.2701 24.085L40.4038 23.8H40.089V24ZM40.0571 24L39.8696 24.0697L39.9181 24.2H40.0571V24ZM34.109 8.01049V7.81049H33.8212L33.9215 8.08022L34.109 8.01049ZM36.3475 8.01049L36.535 7.94081L36.4865 7.81049H36.3475V8.01049ZM41.3042 21.3457L41.1168 21.4154L41.2803 21.8554L41.4844 21.4327L41.3042 21.3457ZM46.197 11.2084L46.023 11.1089L46.0169 11.1215L46.197 11.2084ZM46.0691 8.20236L45.9277 8.06094L45.7816 8.207L45.9323 8.34827L46.0691 8.20236ZM46.261 8.01049L46.3504 7.8316L46.2215 7.76714L46.1196 7.86907L46.261 8.01049ZM46.5808 8.39424L46.4089 8.49739L46.4169 8.50893L46.5808 8.39424ZM46.8366 8.96986L46.6382 8.99467L46.6397 9.00665L46.6426 9.01837L46.8366 8.96986ZM46.5168 11.2084L46.6973 11.295L46.7007 11.2872L46.5168 11.2084ZM40.3769 24L40.1965 23.9135L40.1958 23.915L40.3769 24ZM37.5083 29.6421C36.8353 31.1353 36.0437 31.7948 35.1643 31.7948V32.1948C36.2889 32.1948 37.1815 31.3405 37.873 29.8064L37.5083 29.6421ZM35.1643 31.7948C34.7377 31.7948 34.2323 31.7235 33.6458 31.5769L33.5488 31.9649C34.1561 32.1168 34.6954 32.1948 35.1643 32.1948V31.7948ZM33.7973 31.7709V31.5151H33.3973V31.7709H33.7973ZM33.5468 31.7086C34.0487 31.8395 34.5032 31.9069 34.9084 31.9069V31.5069C34.5462 31.5069 34.1266 31.4464 33.6478 31.3215L33.5468 31.7086ZM34.9084 31.9069C35.4961 31.9069 36.0199 31.7271 36.4719 31.3678C36.9208 31.0111 37.2897 30.4848 37.5862 29.8041L37.2194 29.6444C36.9402 30.2855 36.6056 30.7506 36.223 31.0547C35.8436 31.3563 35.408 31.5069 34.9084 31.5069V31.9069ZM37.5839 29.8092L40.2701 24.085L39.908 23.915L37.2217 29.6393L37.5839 29.8092ZM40.089 23.8H40.0571V24.2H40.089V23.8ZM40.2445 23.9303L34.2964 7.94076L33.9215 8.08022L39.8696 24.0697L40.2445 23.9303ZM34.109 8.21049H36.3475V7.81049H34.109V8.21049ZM36.16 8.08017L41.1168 21.4154L41.4917 21.2761L36.535 7.94081L36.16 8.08017ZM41.4844 21.4327L46.3772 11.2953L46.0169 11.1215L41.1241 21.2588L41.4844 21.4327ZM46.3707 11.3076C46.6469 10.8242 46.7808 10.2556 46.7808 9.60944H46.3808C46.3808 10.1998 46.2588 10.6972 46.0234 11.1092L46.3707 11.3076ZM46.7808 9.60944C46.7808 8.95455 46.5992 8.42516 46.2059 8.05646L45.9323 8.34827C46.2213 8.61915 46.3808 9.02781 46.3808 9.60944H46.7808ZM46.2105 8.34379L46.4024 8.15191L46.1196 7.86907L45.9277 8.06094L46.2105 8.34379ZM46.1716 8.18938C46.1776 8.19238 46.2044 8.21019 46.2513 8.26644C46.2956 8.31966 46.3483 8.39551 46.4093 8.49714L46.7523 8.29134C46.6853 8.17977 46.6208 8.08507 46.5585 8.01037C46.4988 7.93871 46.4297 7.87124 46.3504 7.8316L46.1716 8.18938ZM46.4169 8.50893C46.5563 8.708 46.6224 8.86885 46.6382 8.99467L47.0351 8.94505C47.0082 8.72976 46.9038 8.50687 46.7446 8.27955L46.4169 8.50893ZM46.6426 9.01837C46.6819 9.17579 46.7006 9.31926 46.7006 9.44955H47.1006C47.1006 9.28137 47.0766 9.10504 47.0306 8.92135L46.6426 9.01837ZM46.7006 9.44955C46.7006 9.99482 46.5795 10.5544 46.333 11.1296L46.7007 11.2872C46.9658 10.6685 47.1006 10.0555 47.1006 9.44955H46.7006ZM46.3365 11.1218L40.1965 23.9135L40.5572 24.0865L46.6971 11.2949L46.3365 11.1218ZM40.1958 23.915L37.5096 29.6393L37.8717 29.8092L40.5579 24.085L40.1958 23.915ZM50.6996 10.1531L50.55 10.0203L50.55 10.0203L50.6996 10.1531ZM60.5491 8.84194L60.4597 9.02083L60.7491 9.16555V8.84194H60.5491ZM60.5491 0.0477142V-0.152286H60.3491V0.0477142H60.5491ZM62.7877 0.0477142H62.9877V-0.152286H62.7877V0.0477142ZM63.1394 23.1685L62.9746 23.2819L62.9787 23.2878L62.9832 23.2935L63.1394 23.1685ZM63.9069 23.6802L63.9427 23.4834L63.9332 23.4817L63.9235 23.4809L63.9069 23.6802ZM64.2587 23.7442L64.2229 23.9409L64.2407 23.9442H64.2587V23.7442ZM65.25 23.7442H65.45V23.5442H65.25V23.7442ZM65.25 24V24.2H65.45V24H65.25ZM61.2846 23.4244L61.1544 23.5763L61.158 23.5792L61.2846 23.4244ZM60.5811 22.2731L60.7808 22.262L60.7808 22.2614L60.5811 22.2731ZM60.5491 21.7295H60.3488L60.3495 21.7412L60.5491 21.7295ZM60.5491 21.2178H60.7491L60.3733 21.1224L60.5491 21.2178ZM58.5344 23.2005L58.639 23.371L58.5344 23.2005ZM55.2086 24.064L55.2037 24.264H55.2086V24.064ZM58.9182 22.6569L58.7982 22.4969L58.7982 22.4969L58.9182 22.6569ZM60.5491 20.3864L60.7484 20.4035L60.7491 20.3949V20.3864H60.5491ZM60.5491 9.12976H60.7491V8.99885L60.6291 8.94646L60.5491 9.12976ZM52.3625 10.3769L52.53 10.4862L52.5307 10.4851L52.3625 10.3769ZM48.8849 16.5809C48.8849 13.8401 49.5489 11.7513 50.8492 10.2858L50.55 10.0203C49.1641 11.5822 48.4849 13.7786 48.4849 16.5809H48.8849ZM50.8492 10.2858C52.143 8.82776 54.0948 8.08257 56.7436 8.08257V7.68257C54.0199 7.68257 51.9424 8.45106 50.55 10.0203L50.8492 10.2858ZM56.7436 8.08257C57.9664 8.08257 59.2045 8.39322 60.4597 9.02083L60.6386 8.66306C59.3355 8.01151 58.0365 7.68257 56.7436 7.68257V8.08257ZM60.7491 8.84194V0.0477142H60.3491V8.84194H60.7491ZM60.5491 0.247714H62.7877V-0.152286H60.5491V0.247714ZM62.5877 0.0477142V21.7295H62.9877V0.0477142H62.5877ZM62.5877 21.7295C62.5877 22.3694 62.7084 22.8947 62.9746 23.2819L63.3042 23.0552C63.1014 22.7602 62.9877 22.3261 62.9877 21.7295H62.5877ZM62.9832 23.2935C63.2536 23.6314 63.5545 23.8515 63.8903 23.8795L63.9235 23.4809C63.7476 23.4662 63.537 23.3453 63.2956 23.0436L62.9832 23.2935ZM63.8711 23.877L64.2229 23.9409L64.2945 23.5474L63.9427 23.4834L63.8711 23.877ZM64.2587 23.9442H65.25V23.5442H64.2587V23.9442ZM65.05 23.7442V24H65.45V23.7442H65.05ZM65.25 23.8H63.2993V24.2H65.25V23.8ZM63.2993 23.8C62.4515 23.8 61.8317 23.6136 61.4113 23.2696L61.158 23.5792C61.6756 24.0027 62.399 24.2 63.2993 24.2V23.8ZM61.4148 23.2725C60.9867 22.9056 60.7978 22.5681 60.7808 22.262L60.3814 22.2842C60.407 22.7456 60.6872 23.1757 61.1545 23.5762L61.4148 23.2725ZM60.7808 22.2614L60.7488 21.7177L60.3495 21.7412L60.3814 22.2849L60.7808 22.2614ZM60.7491 21.7295V21.2178H60.3491V21.7295H60.7491ZM60.3733 21.1224C59.9893 21.8299 59.3466 22.4675 58.4298 23.0301L58.639 23.371C59.5983 22.7823 60.2988 22.0981 60.7249 21.3132L60.3733 21.1224ZM58.4298 23.0301C57.5281 23.5834 56.4569 23.864 55.2086 23.864V24.264C56.5186 24.264 57.6647 23.9689 58.639 23.371L58.4298 23.0301ZM55.2135 23.864C53.0764 23.8116 51.5064 23.1745 50.4666 21.9818C49.4232 20.785 48.8849 18.996 48.8849 16.5809H48.4849C48.4849 19.0479 49.0339 20.9471 50.1651 22.2447C51.2999 23.5464 52.9917 24.2097 55.2037 24.2639L55.2135 23.864ZM55.2406 24.0081C56.707 24.0081 57.9762 23.6134 59.0382 22.8169L58.7982 22.4969C57.8135 23.2354 56.631 23.6081 55.2406 23.6081V24.0081ZM59.0382 22.8169C60.0764 22.0382 60.677 21.2358 60.7484 20.4035L60.3499 20.3693C60.2933 21.0293 59.8067 21.7405 58.7982 22.4969L59.0382 22.8169ZM60.7491 20.3864V9.12976H60.3491V20.3864H60.7491ZM60.6291 8.94646C59.1021 8.27971 57.773 7.93841 56.6477 7.93841V8.33841C57.6969 8.33841 58.9688 8.658 60.4691 9.31305L60.6291 8.94646ZM56.6477 7.93841C54.6879 7.93841 53.1934 8.71458 52.1943 10.2688L52.5307 10.4851C53.4503 9.05459 54.8126 8.33841 56.6477 8.33841V7.93841ZM52.195 10.2677C51.2061 11.784 50.7234 13.8959 50.7234 16.5809H51.1234C51.1234 13.936 51.6002 11.912 52.53 10.4862L52.195 10.2677ZM50.7234 16.5809C50.7234 19.0033 51.084 20.8534 51.831 22.1039C52.5878 23.3707 53.7334 24.0081 55.2406 24.0081V23.6081C53.8697 23.6081 52.8567 23.041 52.1744 21.8987C51.4824 20.7402 51.1234 18.9766 51.1234 16.5809H50.7234ZM71.379 23.5523L71.2862 23.7295L71.2896 23.7312L71.379 23.5523ZM76.5916 22.3371L76.4531 22.1928L76.4516 22.1942L76.5916 22.3371ZM78.3185 19.491L78.5175 19.5104L78.5185 19.5007V19.491H78.3185ZM78.3185 8.01049V7.81049H78.1185V8.01049H78.3185ZM80.557 8.01049H80.757V7.81049H80.557V8.01049ZM80.9088 23.1685L80.744 23.2819L80.7481 23.2878L80.7526 23.2935L80.9088 23.1685ZM81.6763 23.6802L81.712 23.4834L81.7025 23.4817L81.6929 23.4809L81.6763 23.6802ZM82.028 23.7442L81.9923 23.9409L82.01 23.9442H82.028V23.7442ZM83.0194 23.7442H83.2194V23.5442H83.0194V23.7442ZM83.0194 24V24.2H83.2194V24H83.0194ZM79.054 23.4244L78.9238 23.5763L78.9273 23.5792L79.054 23.4244ZM78.3504 22.2731L78.5501 22.262L78.5501 22.2614L78.3504 22.2731ZM78.3185 21.7295H78.1181L78.1188 21.7412L78.3185 21.7295ZM78.3185 20.3544H78.5185L78.134 20.2772L78.3185 20.3544ZM76.2718 22.9447L76.3972 23.1005L76.3992 23.0989L76.2718 22.9447ZM70.1958 23.8081L70.1342 23.9985L70.1408 24.0004L70.1958 23.8081ZM68.6288 22.8488L68.7859 22.7248L68.7821 22.7202L68.6288 22.8488ZM67.7974 8.01049V7.81049H67.5974V8.01049H67.7974ZM70.0359 8.01049H70.2359V7.81049H70.0359V8.01049ZM69.8359 20.3224C69.8359 22.0287 70.2888 23.207 71.2862 23.7295L71.4718 23.3751C70.6785 22.9596 70.2359 21.9846 70.2359 20.3224H69.8359ZM71.2896 23.7312C71.7523 23.9626 72.3293 24.0721 73.0099 24.0721V23.6721C72.3688 23.6721 71.8585 23.5684 71.4685 23.3734L71.2896 23.7312ZM73.0099 24.0721C74.4103 24.0721 75.6532 23.5363 76.7316 22.48L76.4516 22.1942C75.4407 23.1845 74.2958 23.6721 73.0099 23.6721V24.0721ZM76.7301 22.4814C77.8088 21.4458 78.4253 20.4551 78.5175 19.5104L78.1194 19.4715C78.041 20.275 77.5063 21.1818 76.4531 22.1928L76.7301 22.4814ZM78.5185 19.491V8.01049H78.1185V19.491H78.5185ZM78.3185 8.21049H80.557V7.81049H78.3185V8.21049ZM80.357 8.01049V21.7295H80.757V8.01049H80.357ZM80.357 21.7295C80.357 22.3694 80.4778 22.8947 80.744 23.2819L81.0736 23.0552C80.8707 22.7602 80.757 22.3261 80.757 21.7295H80.357ZM80.7526 23.2935C81.0229 23.6314 81.3239 23.8515 81.6597 23.8795L81.6929 23.4809C81.517 23.4662 81.3063 23.3453 81.0649 23.0436L80.7526 23.2935ZM81.6405 23.877L81.9923 23.9409L82.0638 23.5474L81.712 23.4834L81.6405 23.877ZM82.028 23.9442H83.0194V23.5442H82.028V23.9442ZM82.8194 23.7442V24H83.2194V23.7442H82.8194ZM83.0194 23.8H81.0687V24.2H83.0194V23.8ZM81.0687 23.8C80.2208 23.8 79.6011 23.6136 79.1806 23.2696L78.9273 23.5792C79.445 24.0027 80.1683 24.2 81.0687 24.2V23.8ZM79.1841 23.2725C78.756 22.9056 78.5671 22.5681 78.5501 22.262L78.1507 22.2842C78.1764 22.7456 78.4565 23.1757 78.9238 23.5762L79.1841 23.2725ZM78.5501 22.2614L78.5181 21.7177L78.1188 21.7412L78.1508 22.2849L78.5501 22.2614ZM78.5185 21.7295V20.3544H78.1185V21.7295H78.5185ZM78.134 20.2772C77.7658 21.1568 77.1069 21.9954 76.1444 22.7905L76.3992 23.0989C77.3981 22.2737 78.1037 21.3855 78.503 20.4316L78.134 20.2772ZM76.1465 22.7888C75.1985 23.5513 74.1654 23.9279 73.0419 23.9279V24.3279C74.2635 24.3279 75.3837 23.9157 76.3972 23.1005L76.1465 22.7888ZM73.0419 23.9279C71.9012 23.9279 70.9727 23.8221 70.2507 23.6158L70.1408 24.0004C70.9113 24.2205 71.8801 24.3279 73.0419 24.3279V23.9279ZM70.2574 23.6178C69.5532 23.39 69.072 23.0873 68.7858 22.7248L68.4718 22.9727C68.8253 23.4204 69.3886 23.7572 70.1342 23.9984L70.2574 23.6178ZM68.7821 22.7202C68.264 22.1025 67.9974 21.2984 67.9974 20.2904H67.5974C67.5974 21.3718 67.885 22.2732 68.4756 22.9773L68.7821 22.7202ZM67.9974 20.2904V8.01049H67.5974V20.2904H67.9974ZM67.7974 8.21049H70.0359V7.81049H67.7974V8.21049ZM69.8359 8.01049V20.3224H70.2359V8.01049H69.8359ZM85.1417 22.529L84.9628 22.6184L84.9628 22.6184L85.1417 22.529ZM84.9818 0.0477142V-0.152286H84.7818V0.0477142H84.9818ZM87.2204 0.0477142H87.4204V-0.152286H87.2204V0.0477142ZM87.5721 23.1685L87.4073 23.2819L87.4114 23.2878L87.416 23.2935L87.5721 23.1685ZM88.3396 23.6802L88.3754 23.4834L88.3659 23.4817L88.3562 23.4809L88.3396 23.6802ZM88.6914 23.7442L88.6556 23.9409L88.6734 23.9442H88.6914V23.7442ZM89.6828 23.7442H89.8828V23.5442H89.6828V23.7442ZM89.6828 24V24.2H89.8828V24H89.6828ZM88.6914 23.8C86.8344 23.8 85.7576 23.3134 85.3206 22.4395L84.9628 22.6184C85.5066 23.7059 86.7962 24.2 88.6914 24.2V23.8ZM85.3206 22.4395C85.2227 22.2437 85.1818 22.083 85.1818 21.9533H84.7818C84.7818 22.1648 84.8476 22.3878 84.9628 22.6184L85.3206 22.4395ZM85.1818 21.9533V0.0477142H84.7818V21.9533H85.1818ZM84.9818 0.247714H87.2204V-0.152286H84.9818V0.247714ZM87.0204 0.0477142V21.7295H87.4204V0.0477142H87.0204ZM87.0204 21.7295C87.0204 22.3694 87.1411 22.8947 87.4073 23.2819L87.7369 23.0552C87.5341 22.7602 87.4204 22.3261 87.4204 21.7295H87.0204ZM87.416 23.2935C87.6863 23.6314 87.9873 23.8515 88.323 23.8795L88.3562 23.4809C88.1803 23.4662 87.9697 23.3453 87.7283 23.0436L87.416 23.2935ZM88.3039 23.877L88.6556 23.9409L88.7272 23.5474L88.3754 23.4834L88.3039 23.877ZM88.6914 23.9442H89.6828V23.5442H88.6914V23.9442ZM89.4828 23.7442V24H89.8828V23.7442H89.4828ZM89.6828 23.8H88.6914V24.2H89.6828V23.8ZM94.0509 22.0173L93.8902 22.1364L93.8916 22.1382L94.0509 22.0173ZM103.421 22.9127L103.605 22.8339L103.529 22.6569L103.349 22.726L103.421 22.9127ZM103.517 23.1366L103.589 23.3231L103.782 23.2482L103.701 23.0578L103.517 23.1366ZM92.5159 22.2092L92.6538 22.0643L92.6538 22.0643L92.5159 22.2092ZM92.6118 10.0891L92.4673 9.95088L92.4673 9.95088L92.6118 10.0891ZM102.397 9.44955L102.529 9.29903L102.529 9.29903L102.397 9.44955ZM104.188 14.4063V14.6063H104.388V14.4063H104.188ZM92.7717 14.4063V14.2063H92.5927L92.573 14.3842L92.7717 14.4063ZM102.014 14.1505V14.3505H102.216L102.214 14.1484L102.014 14.1505ZM100.83 9.60944L100.673 9.7327L100.673 9.7327L100.83 9.60944ZM94.5945 9.73736L94.4459 9.60356L94.4444 9.60523L94.5945 9.73736ZM92.8037 14.1505L92.6055 14.1234L92.5746 14.3505H92.8037V14.1505ZM92.4758 16.1971C92.4758 18.856 92.9353 20.8484 93.8902 22.1364L94.2116 21.8982C93.333 20.7131 92.8758 18.8254 92.8758 16.1971H92.4758ZM93.8916 22.1382C94.8663 23.4231 96.1504 24.0721 97.7285 24.0721V23.6721C96.2792 23.6721 95.1116 23.0846 94.2102 21.8964L93.8916 22.1382ZM97.7285 24.0721C99.8803 24.0721 101.803 23.7493 103.493 23.0994L103.349 22.726C101.713 23.3553 99.8406 23.6721 97.7285 23.6721V24.0721ZM103.237 22.9915L103.333 23.2154L103.701 23.0578L103.605 22.8339L103.237 22.9915ZM103.444 22.9501C101.766 23.6006 99.8613 23.9279 97.7285 23.9279V24.3279C99.9022 24.3279 101.857 23.9943 103.589 23.3231L103.444 22.9501ZM97.7285 23.9279C95.6396 23.9279 93.9542 23.3028 92.6538 22.0643L92.378 22.354C93.7639 23.6739 95.5535 24.3279 97.7285 24.3279V23.9279ZM92.6538 22.0643C91.365 20.8369 90.7012 18.9274 90.7012 16.2931H90.3012C90.3012 18.9885 90.9806 21.0231 92.378 22.354L92.6538 22.0643ZM90.7012 16.2931C90.7012 13.6632 91.3948 11.6508 92.7564 10.2274L92.4673 9.95088C91.0147 11.4695 90.3012 13.5931 90.3012 16.2931H90.7012ZM92.7564 10.2274C94.1229 8.79869 95.8602 8.08257 97.9843 8.08257V7.68257C95.7593 7.68257 93.9149 8.4375 92.4673 9.95088L92.7564 10.2274ZM97.9843 8.08257C99.6894 8.08257 101.112 8.59065 102.266 9.60006L102.529 9.29903C101.295 8.21915 99.7756 7.68257 97.9843 7.68257V8.08257ZM102.266 9.60006C103.404 10.5964 103.988 12.0796 103.988 14.0865H104.388C104.388 12 103.778 10.392 102.529 9.29903L102.266 9.60006ZM103.988 14.0865C103.988 14.0867 103.988 14.0869 103.988 14.0871C103.988 14.0873 103.988 14.0875 103.988 14.0878C103.988 14.088 103.988 14.0882 103.988 14.0884C103.988 14.0886 103.988 14.0888 103.988 14.089C103.988 14.0892 103.988 14.0894 103.988 14.0896C103.988 14.0898 103.988 14.09 103.988 14.0903C103.988 14.0905 103.988 14.0907 103.988 14.0909C103.988 14.0911 103.988 14.0913 103.988 14.0915C103.988 14.0917 103.988 14.0919 103.988 14.0921C103.988 14.0923 103.988 14.0925 103.988 14.0927C103.988 14.093 103.988 14.0932 103.988 14.0934C103.988 14.0936 103.988 14.0938 103.988 14.094C103.988 14.0942 103.988 14.0944 103.988 14.0946C103.988 14.0948 103.988 14.095 103.988 14.0952C103.988 14.0955 103.988 14.0957 103.988 14.0959C103.988 14.0961 103.988 14.0963 103.988 14.0965C103.988 14.0967 103.988 14.0969 103.988 14.0971C103.988 14.0973 103.988 14.0975 103.988 14.0977C103.988 14.098 103.988 14.0982 103.988 14.0984C103.988 14.0986 103.988 14.0988 103.988 14.099C103.988 14.0992 103.988 14.0994 103.988 14.0996C103.988 14.0998 103.988 14.1 103.988 14.1002C103.988 14.1005 103.988 14.1007 103.988 14.1009C103.988 14.1011 103.988 14.1013 103.988 14.1015C103.988 14.1017 103.988 14.1019 103.988 14.1021C103.988 14.1023 103.988 14.1025 103.988 14.1027C103.988 14.103 103.988 14.1032 103.988 14.1034C103.988 14.1036 103.988 14.1038 103.988 14.104C103.988 14.1042 103.988 14.1044 103.988 14.1046C103.988 14.1048 103.988 14.105 103.988 14.1052C103.988 14.1054 103.988 14.1057 103.988 14.1059C103.988 14.1061 103.988 14.1063 103.988 14.1065C103.988 14.1067 103.988 14.1069 103.988 14.1071C103.988 14.1073 103.988 14.1075 103.988 14.1077C103.988 14.1079 103.988 14.1082 103.988 14.1084C103.988 14.1086 103.988 14.1088 103.988 14.109C103.988 14.1092 103.988 14.1094 103.988 14.1096C103.988 14.1098 103.988 14.11 103.988 14.1102C103.988 14.1104 103.988 14.1107 103.988 14.1109C103.988 14.1111 103.988 14.1113 103.988 14.1115C103.988 14.1117 103.988 14.1119 103.988 14.1121C103.988 14.1123 103.988 14.1125 103.988 14.1127C103.988 14.1129 103.988 14.1132 103.988 14.1134C103.988 14.1136 103.988 14.1138 103.988 14.114C103.988 14.1142 103.988 14.1144 103.988 14.1146C103.988 14.1148 103.988 14.115 103.988 14.1152C103.988 14.1154 103.988 14.1157 103.988 14.1159C103.988 14.1161 103.988 14.1163 103.988 14.1165C103.988 14.1167 103.988 14.1169 103.988 14.1171C103.988 14.1173 103.988 14.1175 103.988 14.1177C103.988 14.1179 103.988 14.1181 103.988 14.1184C103.988 14.1186 103.988 14.1188 103.988 14.119C103.988 14.1192 103.988 14.1194 103.988 14.1196C103.988 14.1198 103.988 14.12 103.988 14.1202C103.988 14.1204 103.988 14.1206 103.988 14.1209C103.988 14.1211 103.988 14.1213 103.988 14.1215C103.988 14.1217 103.988 14.1219 103.988 14.1221C103.988 14.1223 103.988 14.1225 103.988 14.1227C103.988 14.1229 103.988 14.1231 103.988 14.1234C103.988 14.1236 103.988 14.1238 103.988 14.124C103.988 14.1242 103.988 14.1244 103.988 14.1246C103.988 14.1248 103.988 14.125 103.988 14.1252C103.988 14.1254 103.988 14.1256 103.988 14.1259C103.988 14.1261 103.988 14.1263 103.988 14.1265C103.988 14.1267 103.988 14.1269 103.988 14.1271C103.988 14.1273 103.988 14.1275 103.988 14.1277C103.988 14.1279 103.988 14.1281 103.988 14.1284C103.988 14.1286 103.988 14.1288 103.988 14.129C103.988 14.1292 103.988 14.1294 103.988 14.1296C103.988 14.1298 103.988 14.13 103.988 14.1302C103.988 14.1304 103.988 14.1306 103.988 14.1308C103.988 14.1311 103.988 14.1313 103.988 14.1315C103.988 14.1317 103.988 14.1319 103.988 14.1321C103.988 14.1323 103.988 14.1325 103.988 14.1327C103.988 14.1329 103.988 14.1331 103.988 14.1333C103.988 14.1336 103.988 14.1338 103.988 14.134C103.988 14.1342 103.988 14.1344 103.988 14.1346C103.988 14.1348 103.988 14.135 103.988 14.1352C103.988 14.1354 103.988 14.1356 103.988 14.1358C103.988 14.1361 103.988 14.1363 103.988 14.1365C103.988 14.1367 103.988 14.1369 103.988 14.1371C103.988 14.1373 103.988 14.1375 103.988 14.1377C103.988 14.1379 103.988 14.1381 103.988 14.1383C103.988 14.1386 103.988 14.1388 103.988 14.139C103.988 14.1392 103.988 14.1394 103.988 14.1396C103.988 14.1398 103.988 14.14 103.988 14.1402C103.988 14.1404 103.988 14.1406 103.988 14.1408C103.988 14.1411 103.988 14.1413 103.988 14.1415C103.988 14.1417 103.988 14.1419 103.988 14.1421C103.988 14.1423 103.988 14.1425 103.988 14.1427C103.988 14.1429 103.988 14.1431 103.988 14.1433C103.988 14.1435 103.988 14.1438 103.988 14.144C103.988 14.1442 103.988 14.1444 103.988 14.1446C103.988 14.1448 103.988 14.145 103.988 14.1452C103.988 14.1454 103.988 14.1456 103.988 14.1458C103.988 14.146 103.988 14.1463 103.988 14.1465C103.988 14.1467 103.988 14.1469 103.988 14.1471C103.988 14.1473 103.988 14.1475 103.988 14.1477C103.988 14.1479 103.988 14.1481 103.988 14.1483C103.988 14.1485 103.988 14.1488 103.988 14.149C103.988 14.1492 103.988 14.1494 103.988 14.1496C103.988 14.1498 103.988 14.15 103.988 14.1502C103.988 14.1504 103.988 14.1506 103.988 14.1508C103.988 14.151 103.988 14.1513 103.988 14.1515C103.988 14.1517 103.988 14.1519 103.988 14.1521C103.988 14.1523 103.988 14.1525 103.988 14.1527C103.988 14.1529 103.988 14.1531 103.988 14.1533C103.988 14.1535 103.988 14.1538 103.988 14.154C103.988 14.1542 103.988 14.1544 103.988 14.1546C103.988 14.1548 103.988 14.155 103.988 14.1552C103.988 14.1554 103.988 14.1556 103.988 14.1558C103.988 14.156 103.988 14.1562 103.988 14.1565C103.988 14.1567 103.988 14.1569 103.988 14.1571C103.988 14.1573 103.988 14.1575 103.988 14.1577C103.988 14.1579 103.988 14.1581 103.988 14.1583C103.988 14.1585 103.988 14.1587 103.988 14.159C103.988 14.1592 103.988 14.1594 103.988 14.1596C103.988 14.1598 103.988 14.16 103.988 14.1602C103.988 14.1604 103.988 14.1606 103.988 14.1608C103.988 14.161 103.988 14.1612 103.988 14.1615C103.988 14.1617 103.988 14.1619 103.988 14.1621C103.988 14.1623 103.988 14.1625 103.988 14.1627C103.988 14.1629 103.988 14.1631 103.988 14.1633C103.988 14.1635 103.988 14.1637 103.988 14.164C103.988 14.1642 103.988 14.1644 103.988 14.1646C103.988 14.1648 103.988 14.165 103.988 14.1652C103.988 14.1654 103.988 14.1656 103.988 14.1658C103.988 14.166 103.988 14.1662 103.988 14.1665C103.988 14.1667 103.988 14.1669 103.988 14.1671C103.988 14.1673 103.988 14.1675 103.988 14.1677C103.988 14.1679 103.988 14.1681 103.988 14.1683C103.988 14.1685 103.988 14.1687 103.988 14.1689C103.988 14.1692 103.988 14.1694 103.988 14.1696C103.988 14.1698 103.988 14.17 103.988 14.1702C103.988 14.1704 103.988 14.1706 103.988 14.1708C103.988 14.171 103.988 14.1712 103.988 14.1714C103.988 14.1717 103.988 14.1719 103.988 14.1721C103.988 14.1723 103.988 14.1725 103.988 14.1727C103.988 14.1729 103.988 14.1731 103.988 14.1733C103.988 14.1735 103.988 14.1737 103.988 14.1739C103.988 14.1742 103.988 14.1744 103.988 14.1746C103.988 14.1748 103.988 14.175 103.988 14.1752C103.988 14.1754 103.988 14.1756 103.988 14.1758C103.988 14.176 103.988 14.1762 103.988 14.1764C103.988 14.1767 103.988 14.1769 103.988 14.1771C103.988 14.1773 103.988 14.1775 103.988 14.1777C103.988 14.1779 103.988 14.1781 103.988 14.1783C103.988 14.1785 103.988 14.1787 103.988 14.1789C103.988 14.1792 103.988 14.1794 103.988 14.1796C103.988 14.1798 103.988 14.18 103.988 14.1802C103.988 14.1804 103.988 14.1806 103.988 14.1808C103.988 14.181 103.988 14.1812 103.988 14.1814C103.988 14.1816 103.988 14.1819 103.988 14.1821C103.988 14.1823 103.988 14.1825 103.988 14.1827C103.988 14.1829 103.988 14.1831 103.988 14.1833C103.988 14.1835 103.988 14.1837 103.988 14.1839C103.988 14.1841 103.988 14.1844 103.988 14.1846C103.988 14.1848 103.988 14.185 103.988 14.1852C103.988 14.1854 103.988 14.1856 103.988 14.1858C103.988 14.186 103.988 14.1862 103.988 14.1864C103.988 14.1866 103.988 14.1869 103.988 14.1871C103.988 14.1873 103.988 14.1875 103.988 14.1877C103.988 14.1879 103.988 14.1881 103.988 14.1883C103.988 14.1885 103.988 14.1887 103.988 14.1889C103.988 14.1891 103.988 14.1894 103.988 14.1896C103.988 14.1898 103.988 14.19 103.988 14.1902C103.988 14.1904 103.988 14.1906 103.988 14.1908C103.988 14.191 103.988 14.1912 103.988 14.1914C103.988 14.1916 103.988 14.1919 103.988 14.1921C103.988 14.1923 103.988 14.1925 103.988 14.1927C103.988 14.1929 103.988 14.1931 103.988 14.1933C103.988 14.1935 103.988 14.1937 103.988 14.1939C103.988 14.1941 103.988 14.1943 103.988 14.1946C103.988 14.1948 103.988 14.195 103.988 14.1952C103.988 14.1954 103.988 14.1956 103.988 14.1958C103.988 14.196 103.988 14.1962 103.988 14.1964C103.988 14.1966 103.988 14.1968 103.988 14.1971C103.988 14.1973 103.988 14.1975 103.988 14.1977C103.988 14.1979 103.988 14.1981 103.988 14.1983C103.988 14.1985 103.988 14.1987 103.988 14.1989C103.988 14.1991 103.988 14.1993 103.988 14.1996C103.988 14.1998 103.988 14.2 103.988 14.2002C103.988 14.2004 103.988 14.2006 103.988 14.2008C103.988 14.201 103.988 14.2012 103.988 14.2014C103.988 14.2016 103.988 14.2018 103.988 14.2021C103.988 14.2023 103.988 14.2025 103.988 14.2027C103.988 14.2029 103.988 14.2031 103.988 14.2033C103.988 14.2035 103.988 14.2037 103.988 14.2039C103.988 14.2041 103.988 14.2043 103.988 14.2046C103.988 14.2048 103.988 14.205 103.988 14.2052C103.988 14.2054 103.988 14.2056 103.988 14.2058C103.988 14.206 103.988 14.2062 103.988 14.2064C103.988 14.2066 103.988 14.2068 103.988 14.207C103.988 14.2073 103.988 14.2075 103.988 14.2077C103.988 14.2079 103.988 14.2081 103.988 14.2083C103.988 14.2085 103.988 14.2087 103.988 14.2089C103.988 14.2091 103.988 14.2093 103.988 14.2095C103.988 14.2098 103.988 14.21 103.988 14.2102C103.988 14.2104 103.988 14.2106 103.988 14.2108C103.988 14.211 103.988 14.2112 103.988 14.2114C103.988 14.2116 103.988 14.2118 103.988 14.212C103.988 14.2123 103.988 14.2125 103.988 14.2127C103.988 14.2129 103.988 14.2131 103.988 14.2133C103.988 14.2135 103.988 14.2137 103.988 14.2139C103.988 14.2141 103.988 14.2143 103.988 14.2145C103.988 14.2148 103.988 14.215 103.988 14.2152C103.988 14.2154 103.988 14.2156 103.988 14.2158C103.988 14.216 103.988 14.2162 103.988 14.2164C103.988 14.2166 103.988 14.2168 103.988 14.217C103.988 14.2173 103.988 14.2175 103.988 14.2177C103.988 14.2179 103.988 14.2181 103.988 14.2183C103.988 14.2185 103.988 14.2187 103.988 14.2189C103.988 14.2191 103.988 14.2193 103.988 14.2195C103.988 14.2197 103.988 14.22 103.988 14.2202C103.988 14.2204 103.988 14.2206 103.988 14.2208C103.988 14.221 103.988 14.2212 103.988 14.2214C103.988 14.2216 103.988 14.2218 103.988 14.222C103.988 14.2222 103.988 14.2225 103.988 14.2227C103.988 14.2229 103.988 14.2231 103.988 14.2233C103.988 14.2235 103.988 14.2237 103.988 14.2239C103.988 14.2241 103.988 14.2243 103.988 14.2245C103.988 14.2247 103.988 14.225 103.988 14.2252C103.988 14.2254 103.988 14.2256 103.988 14.2258C103.988 14.226 103.988 14.2262 103.988 14.2264C103.988 14.2266 103.988 14.2268 103.988 14.227C103.988 14.2272 103.988 14.2275 103.988 14.2277C103.988 14.2279 103.988 14.2281 103.988 14.2283C103.988 14.2285 103.988 14.2287 103.988 14.2289C103.988 14.2291 103.988 14.2293 103.988 14.2295C103.988 14.2297 103.988 14.23 103.988 14.2302C103.988 14.2304 103.988 14.2306 103.988 14.2308C103.988 14.231 103.988 14.2312 103.988 14.2314C103.988 14.2316 103.988 14.2318 103.988 14.232C103.988 14.2322 103.988 14.2324 103.988 14.2327C103.988 14.2329 103.988 14.2331 103.988 14.2333C103.988 14.2335 103.988 14.2337 103.988 14.2339C103.988 14.2341 103.988 14.2343 103.988 14.2345C103.988 14.2347 103.988 14.2349 103.988 14.2352C103.988 14.2354 103.988 14.2356 103.988 14.2358C103.988 14.236 103.988 14.2362 103.988 14.2364C103.988 14.2366 103.988 14.2368 103.988 14.237C103.988 14.2372 103.988 14.2374 103.988 14.2377C103.988 14.2379 103.988 14.2381 103.988 14.2383C103.988 14.2385 103.988 14.2387 103.988 14.2389C103.988 14.2391 103.988 14.2393 103.988 14.2395C103.988 14.2397 103.988 14.2399 103.988 14.2402C103.988 14.2404 103.988 14.2406 103.988 14.2408C103.988 14.241 103.988 14.2412 103.988 14.2414C103.988 14.2416 103.988 14.2418 103.988 14.242C103.988 14.2422 103.988 14.2424 103.988 14.2427C103.988 14.2429 103.988 14.2431 103.988 14.2433C103.988 14.2435 103.988 14.2437 103.988 14.2439C103.988 14.2441 103.988 14.2443 103.988 14.2445C103.988 14.2447 103.988 14.2449 103.988 14.2451C103.988 14.2454 103.988 14.2456 103.988 14.2458C103.988 14.246 103.988 14.2462 103.988 14.2464C103.988 14.2466 103.988 14.2468 103.988 14.247C103.988 14.2472 103.988 14.2474 103.988 14.2476C103.988 14.2479 103.988 14.2481 103.988 14.2483C103.988 14.2485 103.988 14.2487 103.988 14.2489C103.988 14.2491 103.988 14.2493 103.988 14.2495C103.988 14.2497 103.988 14.2499 103.988 14.2501C103.988 14.2504 103.988 14.2506 103.988 14.2508C103.988 14.251 103.988 14.2512 103.988 14.2514C103.988 14.2516 103.988 14.2518 103.988 14.252C103.988 14.2522 103.988 14.2524 103.988 14.2526C103.988 14.2529 103.988 14.2531 103.988 14.2533C103.988 14.2535 103.988 14.2537 103.988 14.2539C103.988 14.2541 103.988 14.2543 103.988 14.2545C103.988 14.2547 103.988 14.2549 103.988 14.2551C103.988 14.2554 103.988 14.2556 103.988 14.2558C103.988 14.256 103.988 14.2562 103.988 14.2564C103.988 14.2566 103.988 14.2568 103.988 14.257C103.988 14.2572 103.988 14.2574 103.988 14.2576C103.988 14.2578 103.988 14.2581 103.988 14.2583C103.988 14.2585 103.988 14.2587 103.988 14.2589C103.988 14.2591 103.988 14.2593 103.988 14.2595C103.988 14.2597 103.988 14.2599 103.988 14.2601C103.988 14.2603 103.988 14.2606 103.988 14.2608C103.988 14.261 103.988 14.2612 103.988 14.2614C103.988 14.2616 103.988 14.2618 103.988 14.262C103.988 14.2622 103.988 14.2624 103.988 14.2626C103.988 14.2628 103.988 14.2631 103.988 14.2633C103.988 14.2635 103.988 14.2637 103.988 14.2639C103.988 14.2641 103.988 14.2643 103.988 14.2645C103.988 14.2647 103.988 14.2649 103.988 14.2651C103.988 14.2653 103.988 14.2656 103.988 14.2658C103.988 14.266 103.988 14.2662 103.988 14.2664C103.988 14.2666 103.988 14.2668 103.988 14.267C103.988 14.2672 103.988 14.2674 103.988 14.2676C103.988 14.2678 103.988 14.2681 103.988 14.2683C103.988 14.2685 103.988 14.2687 103.988 14.2689C103.988 14.2691 103.988 14.2693 103.988 14.2695C103.988 14.2697 103.988 14.2699 103.988 14.2701C103.988 14.2703 103.988 14.2705 103.988 14.2708C103.988 14.271 103.988 14.2712 103.988 14.2714C103.988 14.2716 103.988 14.2718 103.988 14.272C103.988 14.2722 103.988 14.2724 103.988 14.2726C103.988 14.2728 103.988 14.273 103.988 14.2733C103.988 14.2735 103.988 14.2737 103.988 14.2739C103.988 14.2741 103.988 14.2743 103.988 14.2745C103.988 14.2747 103.988 14.2749 103.988 14.2751C103.988 14.2753 103.988 14.2755 103.988 14.2758C103.988 14.276 103.988 14.2762 103.988 14.2764C103.988 14.2766 103.988 14.2768 103.988 14.277C103.988 14.2772 103.988 14.2774 103.988 14.2776C103.988 14.2778 103.988 14.278 103.988 14.2783C103.988 14.2785 103.988 14.2787 103.988 14.2789C103.988 14.2791 103.988 14.2793 103.988 14.2795C103.988 14.2797 103.988 14.2799 103.988 14.2801C103.988 14.2803 103.988 14.2805 103.988 14.2808C103.988 14.281 103.988 14.2812 103.988 14.2814C103.988 14.2816 103.988 14.2818 103.988 14.282C103.988 14.2822 103.988 14.2824 103.988 14.2826C103.988 14.2828 103.988 14.283 103.988 14.2832C103.988 14.2835 103.988 14.2837 103.988 14.2839C103.988 14.2841 103.988 14.2843 103.988 14.2845C103.988 14.2847 103.988 14.2849 103.988 14.2851C103.988 14.2853 103.988 14.2855 103.988 14.2857C103.988 14.286 103.988 14.2862 103.988 14.2864C103.988 14.2866 103.988 14.2868 103.988 14.287C103.988 14.2872 103.988 14.2874 103.988 14.2876C103.988 14.2878 103.988 14.288 103.988 14.2882C103.988 14.2885 103.988 14.2887 103.988 14.2889C103.988 14.2891 103.988 14.2893 103.988 14.2895C103.988 14.2897 103.988 14.2899 103.988 14.2901C103.988 14.2903 103.988 14.2905 103.988 14.2907C103.988 14.291 103.988 14.2912 103.988 14.2914C103.988 14.2916 103.988 14.2918 103.988 14.292C103.988 14.2922 103.988 14.2924 103.988 14.2926C103.988 14.2928 103.988 14.293 103.988 14.2932C103.988 14.2935 103.988 14.2937 103.988 14.2939C103.988 14.2941 103.988 14.2943 103.988 14.2945C103.988 14.2947 103.988 14.2949 103.988 14.2951C103.988 14.2953 103.988 14.2955 103.988 14.2957C103.988 14.2959 103.988 14.2962 103.988 14.2964C103.988 14.2966 103.988 14.2968 103.988 14.297C103.988 14.2972 103.988 14.2974 103.988 14.2976C103.988 14.2978 103.988 14.298 103.988 14.2982C103.988 14.2984 103.988 14.2987 103.988 14.2989C103.988 14.2991 103.988 14.2993 103.988 14.2995C103.988 14.2997 103.988 14.2999 103.988 14.3001C103.988 14.3003 103.988 14.3005 103.988 14.3007C103.988 14.3009 103.988 14.3012 103.988 14.3014C103.988 14.3016 103.988 14.3018 103.988 14.302C103.988 14.3022 103.988 14.3024 103.988 14.3026C103.988 14.3028 103.988 14.303 103.988 14.3032C103.988 14.3034 103.988 14.3037 103.988 14.3039C103.988 14.3041 103.988 14.3043 103.988 14.3045C103.988 14.3047 103.988 14.3049 103.988 14.3051C103.988 14.3053 103.988 14.3055 103.988 14.3057C103.988 14.3059 103.988 14.3062 103.988 14.3064C103.988 14.3066 103.988 14.3068 103.988 14.307C103.988 14.3072 103.988 14.3074 103.988 14.3076C103.988 14.3078 103.988 14.308 103.988 14.3082C103.988 14.3084 103.988 14.3086 103.988 14.3089C103.988 14.3091 103.988 14.3093 103.988 14.3095C103.988 14.3097 103.988 14.3099 103.988 14.3101C103.988 14.3103 103.988 14.3105 103.988 14.3107C103.988 14.3109 103.988 14.3111 103.988 14.3114C103.988 14.3116 103.988 14.3118 103.988 14.312C103.988 14.3122 103.988 14.3124 103.988 14.3126C103.988 14.3128 103.988 14.313 103.988 14.3132C103.988 14.3134 103.988 14.3136 103.988 14.3139C103.988 14.3141 103.988 14.3143 103.988 14.3145C103.988 14.3147 103.988 14.3149 103.988 14.3151C103.988 14.3153 103.988 14.3155 103.988 14.3157C103.988 14.3159 103.988 14.3161 103.988 14.3164C103.988 14.3166 103.988 14.3168 103.988 14.317C103.988 14.3172 103.988 14.3174 103.988 14.3176C103.988 14.3178 103.988 14.318 103.988 14.3182C103.988 14.3184 103.988 14.3186 103.988 14.3189C103.988 14.3191 103.988 14.3193 103.988 14.3195C103.988 14.3197 103.988 14.3199 103.988 14.3201C103.988 14.3203 103.988 14.3205 103.988 14.3207C103.988 14.3209 103.988 14.3211 103.988 14.3213C103.988 14.3216 103.988 14.3218 103.988 14.322C103.988 14.3222 103.988 14.3224 103.988 14.3226C103.988 14.3228 103.988 14.323 103.988 14.3232C103.988 14.3234 103.988 14.3236 103.988 14.3238C103.988 14.3241 103.988 14.3243 103.988 14.3245C103.988 14.3247 103.988 14.3249 103.988 14.3251C103.988 14.3253 103.988 14.3255 103.988 14.3257C103.988 14.3259 103.988 14.3261 103.988 14.3263C103.988 14.3266 103.988 14.3268 103.988 14.327C103.988 14.3272 103.988 14.3274 103.988 14.3276C103.988 14.3278 103.988 14.328 103.988 14.3282C103.988 14.3284 103.988 14.3286 103.988 14.3288C103.988 14.3291 103.988 14.3293 103.988 14.3295C103.988 14.3297 103.988 14.3299 103.988 14.3301C103.988 14.3303 103.988 14.3305 103.988 14.3307C103.988 14.3309 103.988 14.3311 103.988 14.3313C103.988 14.3316 103.988 14.3318 103.988 14.332C103.988 14.3322 103.988 14.3324 103.988 14.3326C103.988 14.3328 103.988 14.333 103.988 14.3332C103.988 14.3334 103.988 14.3336 103.988 14.3338C103.988 14.334 103.988 14.3343 103.988 14.3345C103.988 14.3347 103.988 14.3349 103.988 14.3351C103.988 14.3353 103.988 14.3355 103.988 14.3357C103.988 14.3359 103.988 14.3361 103.988 14.3363C103.988 14.3365 103.988 14.3368 103.988 14.337C103.988 14.3372 103.988 14.3374 103.988 14.3376C103.988 14.3378 103.988 14.338 103.988 14.3382C103.988 14.3384 103.988 14.3386 103.988 14.3388C103.988 14.339 103.988 14.3393 103.988 14.3395C103.988 14.3397 103.988 14.3399 103.988 14.3401C103.988 14.3403 103.988 14.3405 103.988 14.3407C103.988 14.3409 103.988 14.3411 103.988 14.3413C103.988 14.3415 103.988 14.3418 103.988 14.342C103.988 14.3422 103.988 14.3424 103.988 14.3426C103.988 14.3428 103.988 14.343 103.988 14.3432C103.988 14.3434 103.988 14.3436 103.988 14.3438C103.988 14.344 103.988 14.3443 103.988 14.3445C103.988 14.3447 103.988 14.3449 103.988 14.3451C103.988 14.3453 103.988 14.3455 103.988 14.3457C103.988 14.3459 103.988 14.3461 103.988 14.3463C103.988 14.3465 103.988 14.3467 103.988 14.347C103.988 14.3472 103.988 14.3474 103.988 14.3476C103.988 14.3478 103.988 14.348 103.988 14.3482C103.988 14.3484 103.988 14.3486 103.988 14.3488C103.988 14.349 103.988 14.3492 103.988 14.3495C103.988 14.3497 103.988 14.3499 103.988 14.3501C103.988 14.3503 103.988 14.3505 103.988 14.3507C103.988 14.3509 103.988 14.3511 103.988 14.3513C103.988 14.3515 103.988 14.3517 103.988 14.352C103.988 14.3522 103.988 14.3524 103.988 14.3526C103.988 14.3528 103.988 14.353 103.988 14.3532C103.988 14.3534 103.988 14.3536 103.988 14.3538C103.988 14.354 103.988 14.3542 103.988 14.3545C103.988 14.3547 103.988 14.3549 103.988 14.3551C103.988 14.3553 103.988 14.3555 103.988 14.3557C103.988 14.3559 103.988 14.3561 103.988 14.3563C103.988 14.3565 103.988 14.3567 103.988 14.357C103.988 14.3572 103.988 14.3574 103.988 14.3576C103.988 14.3578 103.988 14.358 103.988 14.3582C103.988 14.3584 103.988 14.3586 103.988 14.3588C103.988 14.359 103.988 14.3592 103.988 14.3594C103.988 14.3597 103.988 14.3599 103.988 14.3601C103.988 14.3603 103.988 14.3605 103.988 14.3607C103.988 14.3609 103.988 14.3611 103.988 14.3613C103.988 14.3615 103.988 14.3617 103.988 14.3619C103.988 14.3622 103.988 14.3624 103.988 14.3626C103.988 14.3628 103.988 14.363 103.988 14.3632C103.988 14.3634 103.988 14.3636 103.988 14.3638C103.988 14.364 103.988 14.3642 103.988 14.3644C103.988 14.3647 103.988 14.3649 103.988 14.3651C103.988 14.3653 103.988 14.3655 103.988 14.3657C103.988 14.3659 103.988 14.3661 103.988 14.3663C103.988 14.3665 103.988 14.3667 103.988 14.3669C103.988 14.3672 103.988 14.3674 103.988 14.3676C103.988 14.3678 103.988 14.368 103.988 14.3682C103.988 14.3684 103.988 14.3686 103.988 14.3688C103.988 14.369 103.988 14.3692 103.988 14.3694C103.988 14.3697 103.988 14.3699 103.988 14.3701C103.988 14.3703 103.988 14.3705 103.988 14.3707C103.988 14.3709 103.988 14.3711 103.988 14.3713C103.988 14.3715 103.988 14.3717 103.988 14.3719C103.988 14.3721 103.988 14.3724 103.988 14.3726C103.988 14.3728 103.988 14.373 103.988 14.3732C103.988 14.3734 103.988 14.3736 103.988 14.3738C103.988 14.374 103.988 14.3742 103.988 14.3744C103.988 14.3746 103.988 14.3749 103.988 14.3751C103.988 14.3753 103.988 14.3755 103.988 14.3757C103.988 14.3759 103.988 14.3761 103.988 14.3763C103.988 14.3765 103.988 14.3767 103.988 14.3769C103.988 14.3771 103.988 14.3774 103.988 14.3776C103.988 14.3778 103.988 14.378 103.988 14.3782C103.988 14.3784 103.988 14.3786 103.988 14.3788C103.988 14.379 103.988 14.3792 103.988 14.3794C103.988 14.3796 103.988 14.3799 103.988 14.3801C103.988 14.3803 103.988 14.3805 103.988 14.3807C103.988 14.3809 103.988 14.3811 103.988 14.3813C103.988 14.3815 103.988 14.3817 103.988 14.3819C103.988 14.3821 103.988 14.3824 103.988 14.3826C103.988 14.3828 103.988 14.383 103.988 14.3832C103.988 14.3834 103.988 14.3836 103.988 14.3838C103.988 14.384 103.988 14.3842 103.988 14.3844C103.988 14.3846 103.988 14.3848 103.988 14.3851C103.988 14.3853 103.988 14.3855 103.988 14.3857C103.988 14.3859 103.988 14.3861 103.988 14.3863C103.988 14.3865 103.988 14.3867 103.988 14.3869C103.988 14.3871 103.988 14.3873 103.988 14.3876C103.988 14.3878 103.988 14.388 103.988 14.3882C103.988 14.3884 103.988 14.3886 103.988 14.3888C103.988 14.389 103.988 14.3892 103.988 14.3894C103.988 14.3896 103.988 14.3898 103.988 14.3901C103.988 14.3903 103.988 14.3905 103.988 14.3907C103.988 14.3909 103.988 14.3911 103.988 14.3913C103.988 14.3915 103.988 14.3917 103.988 14.3919C103.988 14.3921 103.988 14.3923 103.988 14.3926C103.988 14.3928 103.988 14.393 103.988 14.3932C103.988 14.3934 103.988 14.3936 103.988 14.3938C103.988 14.394 103.988 14.3942 103.988 14.3944C103.988 14.3946 103.988 14.3948 103.988 14.3951C103.988 14.3953 103.988 14.3955 103.988 14.3957C103.988 14.3959 103.988 14.3961 103.988 14.3963C103.988 14.3965 103.988 14.3967 103.988 14.3969C103.988 14.3971 103.988 14.3973 103.988 14.3975C103.988 14.3978 103.988 14.398 103.988 14.3982C103.988 14.3984 103.988 14.3986 103.988 14.3988C103.988 14.399 103.988 14.3992 103.988 14.3994C103.988 14.3996 103.988 14.3998 103.988 14.4C103.988 14.4003 103.988 14.4005 103.988 14.4007C103.988 14.4009 103.988 14.4011 103.988 14.4013C103.988 14.4015 103.988 14.4017 103.988 14.4019C103.988 14.4021 103.988 14.4023 103.988 14.4025C103.988 14.4028 103.988 14.403 103.988 14.4032C103.988 14.4034 103.988 14.4036 103.988 14.4038C103.988 14.404 103.988 14.4042 103.988 14.4044C103.988 14.4046 103.988 14.4048 103.988 14.405C103.988 14.4053 103.988 14.4055 103.988 14.4057C103.988 14.4059 103.988 14.4061 103.988 14.4063H104.388C104.388 14.4061 104.388 14.4059 104.388 14.4057C104.388 14.4055 104.388 14.4053 104.388 14.405C104.388 14.4048 104.388 14.4046 104.388 14.4044C104.388 14.4042 104.388 14.404 104.388 14.4038C104.388 14.4036 104.388 14.4034 104.388 14.4032C104.388 14.403 104.388 14.4028 104.388 14.4025C104.388 14.4023 104.388 14.4021 104.388 14.4019C104.388 14.4017 104.388 14.4015 104.388 14.4013C104.388 14.4011 104.388 14.4009 104.388 14.4007C104.388 14.4005 104.388 14.4003 104.388 14.4C104.388 14.3998 104.388 14.3996 104.388 14.3994C104.388 14.3992 104.388 14.399 104.388 14.3988C104.388 14.3986 104.388 14.3984 104.388 14.3982C104.388 14.398 104.388 14.3978 104.388 14.3975C104.388 14.3973 104.388 14.3971 104.388 14.3969C104.388 14.3967 104.388 14.3965 104.388 14.3963C104.388 14.3961 104.388 14.3959 104.388 14.3957C104.388 14.3955 104.388 14.3953 104.388 14.3951C104.388 14.3948 104.388 14.3946 104.388 14.3944C104.388 14.3942 104.388 14.394 104.388 14.3938C104.388 14.3936 104.388 14.3934 104.388 14.3932C104.388 14.393 104.388 14.3928 104.388 14.3926C104.388 14.3923 104.388 14.3921 104.388 14.3919C104.388 14.3917 104.388 14.3915 104.388 14.3913C104.388 14.3911 104.388 14.3909 104.388 14.3907C104.388 14.3905 104.388 14.3903 104.388 14.3901C104.388 14.3898 104.388 14.3896 104.388 14.3894C104.388 14.3892 104.388 14.389 104.388 14.3888C104.388 14.3886 104.388 14.3884 104.388 14.3882C104.388 14.388 104.388 14.3878 104.388 14.3876C104.388 14.3873 104.388 14.3871 104.388 14.3869C104.388 14.3867 104.388 14.3865 104.388 14.3863C104.388 14.3861 104.388 14.3859 104.388 14.3857C104.388 14.3855 104.388 14.3853 104.388 14.3851C104.388 14.3848 104.388 14.3846 104.388 14.3844C104.388 14.3842 104.388 14.384 104.388 14.3838C104.388 14.3836 104.388 14.3834 104.388 14.3832C104.388 14.383 104.388 14.3828 104.388 14.3826C104.388 14.3824 104.388 14.3821 104.388 14.3819C104.388 14.3817 104.388 14.3815 104.388 14.3813C104.388 14.3811 104.388 14.3809 104.388 14.3807C104.388 14.3805 104.388 14.3803 104.388 14.3801C104.388 14.3799 104.388 14.3796 104.388 14.3794C104.388 14.3792 104.388 14.379 104.388 14.3788C104.388 14.3786 104.388 14.3784 104.388 14.3782C104.388 14.378 104.388 14.3778 104.388 14.3776C104.388 14.3774 104.388 14.3771 104.388 14.3769C104.388 14.3767 104.388 14.3765 104.388 14.3763C104.388 14.3761 104.388 14.3759 104.388 14.3757C104.388 14.3755 104.388 14.3753 104.388 14.3751C104.388 14.3749 104.388 14.3746 104.388 14.3744C104.388 14.3742 104.388 14.374 104.388 14.3738C104.388 14.3736 104.388 14.3734 104.388 14.3732C104.388 14.373 104.388 14.3728 104.388 14.3726C104.388 14.3724 104.388 14.3721 104.388 14.3719C104.388 14.3717 104.388 14.3715 104.388 14.3713C104.388 14.3711 104.388 14.3709 104.388 14.3707C104.388 14.3705 104.388 14.3703 104.388 14.3701C104.388 14.3699 104.388 14.3697 104.388 14.3694C104.388 14.3692 104.388 14.369 104.388 14.3688C104.388 14.3686 104.388 14.3684 104.388 14.3682C104.388 14.368 104.388 14.3678 104.388 14.3676C104.388 14.3674 104.388 14.3672 104.388 14.3669C104.388 14.3667 104.388 14.3665 104.388 14.3663C104.388 14.3661 104.388 14.3659 104.388 14.3657C104.388 14.3655 104.388 14.3653 104.388 14.3651C104.388 14.3649 104.388 14.3647 104.388 14.3644C104.388 14.3642 104.388 14.364 104.388 14.3638C104.388 14.3636 104.388 14.3634 104.388 14.3632C104.388 14.363 104.388 14.3628 104.388 14.3626C104.388 14.3624 104.388 14.3622 104.388 14.3619C104.388 14.3617 104.388 14.3615 104.388 14.3613C104.388 14.3611 104.388 14.3609 104.388 14.3607C104.388 14.3605 104.388 14.3603 104.388 14.3601C104.388 14.3599 104.388 14.3597 104.388 14.3594C104.388 14.3592 104.388 14.359 104.388 14.3588C104.388 14.3586 104.388 14.3584 104.388 14.3582C104.388 14.358 104.388 14.3578 104.388 14.3576C104.388 14.3574 104.388 14.3572 104.388 14.357C104.388 14.3567 104.388 14.3565 104.388 14.3563C104.388 14.3561 104.388 14.3559 104.388 14.3557C104.388 14.3555 104.388 14.3553 104.388 14.3551C104.388 14.3549 104.388 14.3547 104.388 14.3545C104.388 14.3542 104.388 14.354 104.388 14.3538C104.388 14.3536 104.388 14.3534 104.388 14.3532C104.388 14.353 104.388 14.3528 104.388 14.3526C104.388 14.3524 104.388 14.3522 104.388 14.352C104.388 14.3517 104.388 14.3515 104.388 14.3513C104.388 14.3511 104.388 14.3509 104.388 14.3507C104.388 14.3505 104.388 14.3503 104.388 14.3501C104.388 14.3499 104.388 14.3497 104.388 14.3495C104.388 14.3492 104.388 14.349 104.388 14.3488C104.388 14.3486 104.388 14.3484 104.388 14.3482C104.388 14.348 104.388 14.3478 104.388 14.3476C104.388 14.3474 104.388 14.3472 104.388 14.347C104.388 14.3467 104.388 14.3465 104.388 14.3463C104.388 14.3461 104.388 14.3459 104.388 14.3457C104.388 14.3455 104.388 14.3453 104.388 14.3451C104.388 14.3449 104.388 14.3447 104.388 14.3445C104.388 14.3443 104.388 14.344 104.388 14.3438C104.388 14.3436 104.388 14.3434 104.388 14.3432C104.388 14.343 104.388 14.3428 104.388 14.3426C104.388 14.3424 104.388 14.3422 104.388 14.342C104.388 14.3418 104.388 14.3415 104.388 14.3413C104.388 14.3411 104.388 14.3409 104.388 14.3407C104.388 14.3405 104.388 14.3403 104.388 14.3401C104.388 14.3399 104.388 14.3397 104.388 14.3395C104.388 14.3393 104.388 14.339 104.388 14.3388C104.388 14.3386 104.388 14.3384 104.388 14.3382C104.388 14.338 104.388 14.3378 104.388 14.3376C104.388 14.3374 104.388 14.3372 104.388 14.337C104.388 14.3368 104.388 14.3365 104.388 14.3363C104.388 14.3361 104.388 14.3359 104.388 14.3357C104.388 14.3355 104.388 14.3353 104.388 14.3351C104.388 14.3349 104.388 14.3347 104.388 14.3345C104.388 14.3343 104.388 14.334 104.388 14.3338C104.388 14.3336 104.388 14.3334 104.388 14.3332C104.388 14.333 104.388 14.3328 104.388 14.3326C104.388 14.3324 104.388 14.3322 104.388 14.332C104.388 14.3318 104.388 14.3316 104.388 14.3313C104.388 14.3311 104.388 14.3309 104.388 14.3307C104.388 14.3305 104.388 14.3303 104.388 14.3301C104.388 14.3299 104.388 14.3297 104.388 14.3295C104.388 14.3293 104.388 14.3291 104.388 14.3288C104.388 14.3286 104.388 14.3284 104.388 14.3282C104.388 14.328 104.388 14.3278 104.388 14.3276C104.388 14.3274 104.388 14.3272 104.388 14.327C104.388 14.3268 104.388 14.3266 104.388 14.3263C104.388 14.3261 104.388 14.3259 104.388 14.3257C104.388 14.3255 104.388 14.3253 104.388 14.3251C104.388 14.3249 104.388 14.3247 104.388 14.3245C104.388 14.3243 104.388 14.3241 104.388 14.3238C104.388 14.3236 104.388 14.3234 104.388 14.3232C104.388 14.323 104.388 14.3228 104.388 14.3226C104.388 14.3224 104.388 14.3222 104.388 14.322C104.388 14.3218 104.388 14.3216 104.388 14.3213C104.388 14.3211 104.388 14.3209 104.388 14.3207C104.388 14.3205 104.388 14.3203 104.388 14.3201C104.388 14.3199 104.388 14.3197 104.388 14.3195C104.388 14.3193 104.388 14.3191 104.388 14.3189C104.388 14.3186 104.388 14.3184 104.388 14.3182C104.388 14.318 104.388 14.3178 104.388 14.3176C104.388 14.3174 104.388 14.3172 104.388 14.317C104.388 14.3168 104.388 14.3166 104.388 14.3164C104.388 14.3161 104.388 14.3159 104.388 14.3157C104.388 14.3155 104.388 14.3153 104.388 14.3151C104.388 14.3149 104.388 14.3147 104.388 14.3145C104.388 14.3143 104.388 14.3141 104.388 14.3139C104.388 14.3136 104.388 14.3134 104.388 14.3132C104.388 14.313 104.388 14.3128 104.388 14.3126C104.388 14.3124 104.388 14.3122 104.388 14.312C104.388 14.3118 104.388 14.3116 104.388 14.3114C104.388 14.3111 104.388 14.3109 104.388 14.3107C104.388 14.3105 104.388 14.3103 104.388 14.3101C104.388 14.3099 104.388 14.3097 104.388 14.3095C104.388 14.3093 104.388 14.3091 104.388 14.3089C104.388 14.3086 104.388 14.3084 104.388 14.3082C104.388 14.308 104.388 14.3078 104.388 14.3076C104.388 14.3074 104.388 14.3072 104.388 14.307C104.388 14.3068 104.388 14.3066 104.388 14.3064C104.388 14.3062 104.388 14.3059 104.388 14.3057C104.388 14.3055 104.388 14.3053 104.388 14.3051C104.388 14.3049 104.388 14.3047 104.388 14.3045C104.388 14.3043 104.388 14.3041 104.388 14.3039C104.388 14.3037 104.388 14.3034 104.388 14.3032C104.388 14.303 104.388 14.3028 104.388 14.3026C104.388 14.3024 104.388 14.3022 104.388 14.302C104.388 14.3018 104.388 14.3016 104.388 14.3014C104.388 14.3012 104.388 14.3009 104.388 14.3007C104.388 14.3005 104.388 14.3003 104.388 14.3001C104.388 14.2999 104.388 14.2997 104.388 14.2995C104.388 14.2993 104.388 14.2991 104.388 14.2989C104.388 14.2987 104.388 14.2984 104.388 14.2982C104.388 14.298 104.388 14.2978 104.388 14.2976C104.388 14.2974 104.388 14.2972 104.388 14.297C104.388 14.2968 104.388 14.2966 104.388 14.2964C104.388 14.2962 104.388 14.2959 104.388 14.2957C104.388 14.2955 104.388 14.2953 104.388 14.2951C104.388 14.2949 104.388 14.2947 104.388 14.2945C104.388 14.2943 104.388 14.2941 104.388 14.2939C104.388 14.2937 104.388 14.2935 104.388 14.2932C104.388 14.293 104.388 14.2928 104.388 14.2926C104.388 14.2924 104.388 14.2922 104.388 14.292C104.388 14.2918 104.388 14.2916 104.388 14.2914C104.388 14.2912 104.388 14.291 104.388 14.2907C104.388 14.2905 104.388 14.2903 104.388 14.2901C104.388 14.2899 104.388 14.2897 104.388 14.2895C104.388 14.2893 104.388 14.2891 104.388 14.2889C104.388 14.2887 104.388 14.2885 104.388 14.2882C104.388 14.288 104.388 14.2878 104.388 14.2876C104.388 14.2874 104.388 14.2872 104.388 14.287C104.388 14.2868 104.388 14.2866 104.388 14.2864C104.388 14.2862 104.388 14.286 104.388 14.2857C104.388 14.2855 104.388 14.2853 104.388 14.2851C104.388 14.2849 104.388 14.2847 104.388 14.2845C104.388 14.2843 104.388 14.2841 104.388 14.2839C104.388 14.2837 104.388 14.2835 104.388 14.2832C104.388 14.283 104.388 14.2828 104.388 14.2826C104.388 14.2824 104.388 14.2822 104.388 14.282C104.388 14.2818 104.388 14.2816 104.388 14.2814C104.388 14.2812 104.388 14.281 104.388 14.2808C104.388 14.2805 104.388 14.2803 104.388 14.2801C104.388 14.2799 104.388 14.2797 104.388 14.2795C104.388 14.2793 104.388 14.2791 104.388 14.2789C104.388 14.2787 104.388 14.2785 104.388 14.2783C104.388 14.278 104.388 14.2778 104.388 14.2776C104.388 14.2774 104.388 14.2772 104.388 14.277C104.388 14.2768 104.388 14.2766 104.388 14.2764C104.388 14.2762 104.388 14.276 104.388 14.2758C104.388 14.2755 104.388 14.2753 104.388 14.2751C104.388 14.2749 104.388 14.2747 104.388 14.2745C104.388 14.2743 104.388 14.2741 104.388 14.2739C104.388 14.2737 104.388 14.2735 104.388 14.2733C104.388 14.273 104.388 14.2728 104.388 14.2726C104.388 14.2724 104.388 14.2722 104.388 14.272C104.388 14.2718 104.388 14.2716 104.388 14.2714C104.388 14.2712 104.388 14.271 104.388 14.2708C104.388 14.2705 104.388 14.2703 104.388 14.2701C104.388 14.2699 104.388 14.2697 104.388 14.2695C104.388 14.2693 104.388 14.2691 104.388 14.2689C104.388 14.2687 104.388 14.2685 104.388 14.2683C104.388 14.2681 104.388 14.2678 104.388 14.2676C104.388 14.2674 104.388 14.2672 104.388 14.267C104.388 14.2668 104.388 14.2666 104.388 14.2664C104.388 14.2662 104.388 14.266 104.388 14.2658C104.388 14.2656 104.388 14.2653 104.388 14.2651C104.388 14.2649 104.388 14.2647 104.388 14.2645C104.388 14.2643 104.388 14.2641 104.388 14.2639C104.388 14.2637 104.388 14.2635 104.388 14.2633C104.388 14.2631 104.388 14.2628 104.388 14.2626C104.388 14.2624 104.388 14.2622 104.388 14.262C104.388 14.2618 104.388 14.2616 104.388 14.2614C104.388 14.2612 104.388 14.261 104.388 14.2608C104.388 14.2606 104.388 14.2603 104.388 14.2601C104.388 14.2599 104.388 14.2597 104.388 14.2595C104.388 14.2593 104.388 14.2591 104.388 14.2589C104.388 14.2587 104.388 14.2585 104.388 14.2583C104.388 14.2581 104.388 14.2578 104.388 14.2576C104.388 14.2574 104.388 14.2572 104.388 14.257C104.388 14.2568 104.388 14.2566 104.388 14.2564C104.388 14.2562 104.388 14.256 104.388 14.2558C104.388 14.2556 104.388 14.2554 104.388 14.2551C104.388 14.2549 104.388 14.2547 104.388 14.2545C104.388 14.2543 104.388 14.2541 104.388 14.2539C104.388 14.2537 104.388 14.2535 104.388 14.2533C104.388 14.2531 104.388 14.2529 104.388 14.2526C104.388 14.2524 104.388 14.2522 104.388 14.252C104.388 14.2518 104.388 14.2516 104.388 14.2514C104.388 14.2512 104.388 14.251 104.388 14.2508C104.388 14.2506 104.388 14.2504 104.388 14.2501C104.388 14.2499 104.388 14.2497 104.388 14.2495C104.388 14.2493 104.388 14.2491 104.388 14.2489C104.388 14.2487 104.388 14.2485 104.388 14.2483C104.388 14.2481 104.388 14.2479 104.388 14.2476C104.388 14.2474 104.388 14.2472 104.388 14.247C104.388 14.2468 104.388 14.2466 104.388 14.2464C104.388 14.2462 104.388 14.246 104.388 14.2458C104.388 14.2456 104.388 14.2454 104.388 14.2451C104.388 14.2449 104.388 14.2447 104.388 14.2445C104.388 14.2443 104.388 14.2441 104.388 14.2439C104.388 14.2437 104.388 14.2435 104.388 14.2433C104.388 14.2431 104.388 14.2429 104.388 14.2427C104.388 14.2424 104.388 14.2422 104.388 14.242C104.388 14.2418 104.388 14.2416 104.388 14.2414C104.388 14.2412 104.388 14.241 104.388 14.2408C104.388 14.2406 104.388 14.2404 104.388 14.2402C104.388 14.2399 104.388 14.2397 104.388 14.2395C104.388 14.2393 104.388 14.2391 104.388 14.2389C104.388 14.2387 104.388 14.2385 104.388 14.2383C104.388 14.2381 104.388 14.2379 104.388 14.2377C104.388 14.2374 104.388 14.2372 104.388 14.237C104.388 14.2368 104.388 14.2366 104.388 14.2364C104.388 14.2362 104.388 14.236 104.388 14.2358C104.388 14.2356 104.388 14.2354 104.388 14.2352C104.388 14.2349 104.388 14.2347 104.388 14.2345C104.388 14.2343 104.388 14.2341 104.388 14.2339C104.388 14.2337 104.388 14.2335 104.388 14.2333C104.388 14.2331 104.388 14.2329 104.388 14.2327C104.388 14.2324 104.388 14.2322 104.388 14.232C104.388 14.2318 104.388 14.2316 104.388 14.2314C104.388 14.2312 104.388 14.231 104.388 14.2308C104.388 14.2306 104.388 14.2304 104.388 14.2302C104.388 14.23 104.388 14.2297 104.388 14.2295C104.388 14.2293 104.388 14.2291 104.388 14.2289C104.388 14.2287 104.388 14.2285 104.388 14.2283C104.388 14.2281 104.388 14.2279 104.388 14.2277C104.388 14.2275 104.388 14.2272 104.388 14.227C104.388 14.2268 104.388 14.2266 104.388 14.2264C104.388 14.2262 104.388 14.226 104.388 14.2258C104.388 14.2256 104.388 14.2254 104.388 14.2252C104.388 14.225 104.388 14.2247 104.388 14.2245C104.388 14.2243 104.388 14.2241 104.388 14.2239C104.388 14.2237 104.388 14.2235 104.388 14.2233C104.388 14.2231 104.388 14.2229 104.388 14.2227C104.388 14.2225 104.388 14.2222 104.388 14.222C104.388 14.2218 104.388 14.2216 104.388 14.2214C104.388 14.2212 104.388 14.221 104.388 14.2208C104.388 14.2206 104.388 14.2204 104.388 14.2202C104.388 14.22 104.388 14.2197 104.388 14.2195C104.388 14.2193 104.388 14.2191 104.388 14.2189C104.388 14.2187 104.388 14.2185 104.388 14.2183C104.388 14.2181 104.388 14.2179 104.388 14.2177C104.388 14.2175 104.388 14.2173 104.388 14.217C104.388 14.2168 104.388 14.2166 104.388 14.2164C104.388 14.2162 104.388 14.216 104.388 14.2158C104.388 14.2156 104.388 14.2154 104.388 14.2152C104.388 14.215 104.388 14.2148 104.388 14.2145C104.388 14.2143 104.388 14.2141 104.388 14.2139C104.388 14.2137 104.388 14.2135 104.388 14.2133C104.388 14.2131 104.388 14.2129 104.388 14.2127C104.388 14.2125 104.388 14.2123 104.388 14.212C104.388 14.2118 104.388 14.2116 104.388 14.2114C104.388 14.2112 104.388 14.211 104.388 14.2108C104.388 14.2106 104.388 14.2104 104.388 14.2102C104.388 14.21 104.388 14.2098 104.388 14.2095C104.388 14.2093 104.388 14.2091 104.388 14.2089C104.388 14.2087 104.388 14.2085 104.388 14.2083C104.388 14.2081 104.388 14.2079 104.388 14.2077C104.388 14.2075 104.388 14.2073 104.388 14.207C104.388 14.2068 104.388 14.2066 104.388 14.2064C104.388 14.2062 104.388 14.206 104.388 14.2058C104.388 14.2056 104.388 14.2054 104.388 14.2052C104.388 14.205 104.388 14.2048 104.388 14.2046C104.388 14.2043 104.388 14.2041 104.388 14.2039C104.388 14.2037 104.388 14.2035 104.388 14.2033C104.388 14.2031 104.388 14.2029 104.388 14.2027C104.388 14.2025 104.388 14.2023 104.388 14.2021C104.388 14.2018 104.388 14.2016 104.388 14.2014C104.388 14.2012 104.388 14.201 104.388 14.2008C104.388 14.2006 104.388 14.2004 104.388 14.2002C104.388 14.2 104.388 14.1998 104.388 14.1996C104.388 14.1993 104.388 14.1991 104.388 14.1989C104.388 14.1987 104.388 14.1985 104.388 14.1983C104.388 14.1981 104.388 14.1979 104.388 14.1977C104.388 14.1975 104.388 14.1973 104.388 14.1971C104.388 14.1968 104.388 14.1966 104.388 14.1964C104.388 14.1962 104.388 14.196 104.388 14.1958C104.388 14.1956 104.388 14.1954 104.388 14.1952C104.388 14.195 104.388 14.1948 104.388 14.1946C104.388 14.1943 104.388 14.1941 104.388 14.1939C104.388 14.1937 104.388 14.1935 104.388 14.1933C104.388 14.1931 104.388 14.1929 104.388 14.1927C104.388 14.1925 104.388 14.1923 104.388 14.1921C104.388 14.1919 104.388 14.1916 104.388 14.1914C104.388 14.1912 104.388 14.191 104.388 14.1908C104.388 14.1906 104.388 14.1904 104.388 14.1902C104.388 14.19 104.388 14.1898 104.388 14.1896C104.388 14.1894 104.388 14.1891 104.388 14.1889C104.388 14.1887 104.388 14.1885 104.388 14.1883C104.388 14.1881 104.388 14.1879 104.388 14.1877C104.388 14.1875 104.388 14.1873 104.388 14.1871C104.388 14.1869 104.388 14.1866 104.388 14.1864C104.388 14.1862 104.388 14.186 104.388 14.1858C104.388 14.1856 104.388 14.1854 104.388 14.1852C104.388 14.185 104.388 14.1848 104.388 14.1846C104.388 14.1844 104.388 14.1841 104.388 14.1839C104.388 14.1837 104.388 14.1835 104.388 14.1833C104.388 14.1831 104.388 14.1829 104.388 14.1827C104.388 14.1825 104.388 14.1823 104.388 14.1821C104.388 14.1819 104.388 14.1816 104.388 14.1814C104.388 14.1812 104.388 14.181 104.388 14.1808C104.388 14.1806 104.388 14.1804 104.388 14.1802C104.388 14.18 104.388 14.1798 104.388 14.1796C104.388 14.1794 104.388 14.1792 104.388 14.1789C104.388 14.1787 104.388 14.1785 104.388 14.1783C104.388 14.1781 104.388 14.1779 104.388 14.1777C104.388 14.1775 104.388 14.1773 104.388 14.1771C104.388 14.1769 104.388 14.1767 104.388 14.1764C104.388 14.1762 104.388 14.176 104.388 14.1758C104.388 14.1756 104.388 14.1754 104.388 14.1752C104.388 14.175 104.388 14.1748 104.388 14.1746C104.388 14.1744 104.388 14.1742 104.388 14.1739C104.388 14.1737 104.388 14.1735 104.388 14.1733C104.388 14.1731 104.388 14.1729 104.388 14.1727C104.388 14.1725 104.388 14.1723 104.388 14.1721C104.388 14.1719 104.388 14.1717 104.388 14.1714C104.388 14.1712 104.388 14.171 104.388 14.1708C104.388 14.1706 104.388 14.1704 104.388 14.1702C104.388 14.17 104.388 14.1698 104.388 14.1696C104.388 14.1694 104.388 14.1692 104.388 14.1689C104.388 14.1687 104.388 14.1685 104.388 14.1683C104.388 14.1681 104.388 14.1679 104.388 14.1677C104.388 14.1675 104.388 14.1673 104.388 14.1671C104.388 14.1669 104.388 14.1667 104.388 14.1665C104.388 14.1662 104.388 14.166 104.388 14.1658C104.388 14.1656 104.388 14.1654 104.388 14.1652C104.388 14.165 104.388 14.1648 104.388 14.1646C104.388 14.1644 104.388 14.1642 104.388 14.164C104.388 14.1637 104.388 14.1635 104.388 14.1633C104.388 14.1631 104.388 14.1629 104.388 14.1627C104.388 14.1625 104.388 14.1623 104.388 14.1621C104.388 14.1619 104.388 14.1617 104.388 14.1615C104.388 14.1612 104.388 14.161 104.388 14.1608C104.388 14.1606 104.388 14.1604 104.388 14.1602C104.388 14.16 104.388 14.1598 104.388 14.1596C104.388 14.1594 104.388 14.1592 104.388 14.159C104.388 14.1587 104.388 14.1585 104.388 14.1583C104.388 14.1581 104.388 14.1579 104.388 14.1577C104.388 14.1575 104.388 14.1573 104.388 14.1571C104.388 14.1569 104.388 14.1567 104.388 14.1565C104.388 14.1562 104.388 14.156 104.388 14.1558C104.388 14.1556 104.388 14.1554 104.388 14.1552C104.388 14.155 104.388 14.1548 104.388 14.1546C104.388 14.1544 104.388 14.1542 104.388 14.154C104.388 14.1538 104.388 14.1535 104.388 14.1533C104.388 14.1531 104.388 14.1529 104.388 14.1527C104.388 14.1525 104.388 14.1523 104.388 14.1521C104.388 14.1519 104.388 14.1517 104.388 14.1515C104.388 14.1513 104.388 14.151 104.388 14.1508C104.388 14.1506 104.388 14.1504 104.388 14.1502C104.388 14.15 104.388 14.1498 104.388 14.1496C104.388 14.1494 104.388 14.1492 104.388 14.149C104.388 14.1488 104.388 14.1485 104.388 14.1483C104.388 14.1481 104.388 14.1479 104.388 14.1477C104.388 14.1475 104.388 14.1473 104.388 14.1471C104.388 14.1469 104.388 14.1467 104.388 14.1465C104.388 14.1463 104.388 14.146 104.388 14.1458C104.388 14.1456 104.388 14.1454 104.388 14.1452C104.388 14.145 104.388 14.1448 104.388 14.1446C104.388 14.1444 104.388 14.1442 104.388 14.144C104.388 14.1438 104.388 14.1435 104.388 14.1433C104.388 14.1431 104.388 14.1429 104.388 14.1427C104.388 14.1425 104.388 14.1423 104.388 14.1421C104.388 14.1419 104.388 14.1417 104.388 14.1415C104.388 14.1413 104.388 14.1411 104.388 14.1408C104.388 14.1406 104.388 14.1404 104.388 14.1402C104.388 14.14 104.388 14.1398 104.388 14.1396C104.388 14.1394 104.388 14.1392 104.388 14.139C104.388 14.1388 104.388 14.1386 104.388 14.1383C104.388 14.1381 104.388 14.1379 104.388 14.1377C104.388 14.1375 104.388 14.1373 104.388 14.1371C104.388 14.1369 104.388 14.1367 104.388 14.1365C104.388 14.1363 104.388 14.1361 104.388 14.1358C104.388 14.1356 104.388 14.1354 104.388 14.1352C104.388 14.135 104.388 14.1348 104.388 14.1346C104.388 14.1344 104.388 14.1342 104.388 14.134C104.388 14.1338 104.388 14.1336 104.388 14.1333C104.388 14.1331 104.388 14.1329 104.388 14.1327C104.388 14.1325 104.388 14.1323 104.388 14.1321C104.388 14.1319 104.388 14.1317 104.388 14.1315C104.388 14.1313 104.388 14.1311 104.388 14.1308C104.388 14.1306 104.388 14.1304 104.388 14.1302C104.388 14.13 104.388 14.1298 104.388 14.1296C104.388 14.1294 104.388 14.1292 104.388 14.129C104.388 14.1288 104.388 14.1286 104.388 14.1284C104.388 14.1281 104.388 14.1279 104.388 14.1277C104.388 14.1275 104.388 14.1273 104.388 14.1271C104.388 14.1269 104.388 14.1267 104.388 14.1265C104.388 14.1263 104.388 14.1261 104.388 14.1259C104.388 14.1256 104.388 14.1254 104.388 14.1252C104.388 14.125 104.388 14.1248 104.388 14.1246C104.388 14.1244 104.388 14.1242 104.388 14.124C104.388 14.1238 104.388 14.1236 104.388 14.1234C104.388 14.1231 104.388 14.1229 104.388 14.1227C104.388 14.1225 104.388 14.1223 104.388 14.1221C104.388 14.1219 104.388 14.1217 104.388 14.1215C104.388 14.1213 104.388 14.1211 104.388 14.1209C104.388 14.1206 104.388 14.1204 104.388 14.1202C104.388 14.12 104.388 14.1198 104.388 14.1196C104.388 14.1194 104.388 14.1192 104.388 14.119C104.388 14.1188 104.388 14.1186 104.388 14.1184C104.388 14.1181 104.388 14.1179 104.388 14.1177C104.388 14.1175 104.388 14.1173 104.388 14.1171C104.388 14.1169 104.388 14.1167 104.388 14.1165C104.388 14.1163 104.388 14.1161 104.388 14.1159C104.388 14.1157 104.388 14.1154 104.388 14.1152C104.388 14.115 104.388 14.1148 104.388 14.1146C104.388 14.1144 104.388 14.1142 104.388 14.114C104.388 14.1138 104.388 14.1136 104.388 14.1134C104.388 14.1132 104.388 14.1129 104.388 14.1127C104.388 14.1125 104.388 14.1123 104.388 14.1121C104.388 14.1119 104.388 14.1117 104.388 14.1115C104.388 14.1113 104.388 14.1111 104.388 14.1109C104.388 14.1107 104.388 14.1104 104.388 14.1102C104.388 14.11 104.388 14.1098 104.388 14.1096C104.388 14.1094 104.388 14.1092 104.388 14.109C104.388 14.1088 104.388 14.1086 104.388 14.1084C104.388 14.1082 104.388 14.1079 104.388 14.1077C104.388 14.1075 104.388 14.1073 104.388 14.1071C104.388 14.1069 104.388 14.1067 104.388 14.1065C104.388 14.1063 104.388 14.1061 104.388 14.1059C104.388 14.1057 104.388 14.1054 104.388 14.1052C104.388 14.105 104.388 14.1048 104.388 14.1046C104.388 14.1044 104.388 14.1042 104.388 14.104C104.388 14.1038 104.388 14.1036 104.388 14.1034C104.388 14.1032 104.388 14.103 104.388 14.1027C104.388 14.1025 104.388 14.1023 104.388 14.1021C104.388 14.1019 104.388 14.1017 104.388 14.1015C104.388 14.1013 104.388 14.1011 104.388 14.1009C104.388 14.1007 104.388 14.1005 104.388 14.1002C104.388 14.1 104.388 14.0998 104.388 14.0996C104.388 14.0994 104.388 14.0992 104.388 14.099C104.388 14.0988 104.388 14.0986 104.388 14.0984C104.388 14.0982 104.388 14.098 104.388 14.0977C104.388 14.0975 104.388 14.0973 104.388 14.0971C104.388 14.0969 104.388 14.0967 104.388 14.0965C104.388 14.0963 104.388 14.0961 104.388 14.0959C104.388 14.0957 104.388 14.0955 104.388 14.0952C104.388 14.095 104.388 14.0948 104.388 14.0946C104.388 14.0944 104.388 14.0942 104.388 14.094C104.388 14.0938 104.388 14.0936 104.388 14.0934C104.388 14.0932 104.388 14.093 104.388 14.0927C104.388 14.0925 104.388 14.0923 104.388 14.0921C104.388 14.0919 104.388 14.0917 104.388 14.0915C104.388 14.0913 104.388 14.0911 104.388 14.0909C104.388 14.0907 104.388 14.0905 104.388 14.0903C104.388 14.09 104.388 14.0898 104.388 14.0896C104.388 14.0894 104.388 14.0892 104.388 14.089C104.388 14.0888 104.388 14.0886 104.388 14.0884C104.388 14.0882 104.388 14.088 104.388 14.0878C104.388 14.0875 104.388 14.0873 104.388 14.0871C104.388 14.0869 104.388 14.0867 104.388 14.0865H103.988ZM104.188 14.2063H92.7717V14.6063H104.188V14.2063ZM92.573 14.3842C92.5081 14.9676 92.4758 15.572 92.4758 16.1971H92.8758C92.8758 15.5857 92.9074 14.9962 92.9705 14.4284L92.573 14.3842ZM102.214 14.1484C102.192 12.0837 101.795 10.5175 100.988 9.48618L100.673 9.7327C101.401 10.6627 101.793 12.1239 101.814 14.1525L102.214 14.1484ZM100.988 9.48618C100.184 8.45845 99.1349 7.93841 97.8564 7.93841V8.33841C99.0083 8.33841 99.9423 8.79905 100.673 9.7327L100.988 9.48618ZM97.8564 7.93841C96.5742 7.93841 95.4357 8.50376 94.4459 9.60356L94.7432 9.87115C95.6721 8.83902 96.7082 8.33841 97.8564 8.33841V7.93841ZM94.4444 9.60523C93.473 10.7091 92.865 12.2211 92.6055 14.1234L93.0019 14.1775C93.2541 12.3276 93.84 10.8975 94.7447 9.86948L94.4444 9.60523ZM92.8037 14.3505H102.014V13.9505H92.8037V14.3505Z" fill="#C06526" mask="url(#path-1-outside-1_101_39)"/>
</svg>
