<svg width="50" height="50" viewBox="0 0 50 50" fill="none" xmlns="http://www.w3.org/2000/svg">
<g clip-path="url(#clip0_101_5)">
<rect width="50" height="50" rx="4" fill="#C06526"/>
<mask id="path-2-outside-1_101_5" maskUnits="userSpaceOnUse" x="7.09999" y="12.1" width="36" height="25" fill="black">
<rect fill="white" x="7.09999" y="12.1" width="36" height="25"/>
<path d="M7.37915 28.6809C7.37915 25.9094 8.05071 23.7668 9.39383 22.2531C10.7369 20.7394 12.7516 19.9826 15.4379 19.9826C16.6957 19.9826 17.9642 20.3024 19.2434 20.9419V12.1477H21.4819V33.8295C21.4819 34.4478 21.5992 34.9274 21.8337 35.2686C22.0895 35.5883 22.3453 35.7589 22.6012 35.7802L22.9529 35.8442H23.9443V36.1H21.9936C21.1195 36.1 20.4479 35.9081 19.9789 35.5244C19.5312 35.1406 19.2967 34.7569 19.2753 34.3731L19.2434 33.8295V33.3178C18.8383 34.064 18.1667 34.7249 17.2287 35.3005C16.2906 35.8762 15.182 36.164 13.9029 36.164C9.55373 36.0574 7.37915 33.563 7.37915 28.6809ZM13.9349 35.9081C15.3632 35.9081 16.5891 35.5244 17.6124 34.7569C18.6358 33.9894 19.1794 33.2326 19.2434 32.4864V21.2298C17.7297 20.5689 16.4292 20.2384 15.3419 20.2384C13.4445 20.2384 12.0161 20.9846 11.0567 22.4769C10.0974 23.948 9.61768 26.016 9.61768 28.6809C9.61768 33.499 11.0567 35.9081 13.9349 35.9081ZM25.867 28.6809C25.867 25.9094 26.5386 23.7668 27.8817 22.2531C29.2248 20.7394 31.2395 19.9826 33.9257 19.9826C35.1836 19.9826 36.4521 20.3024 37.7312 20.9419V12.1477H39.9698V33.8295C39.9698 34.4478 40.087 34.9274 40.3215 35.2686C40.5774 35.5883 40.8332 35.7589 41.089 35.7802L41.4408 35.8442H42.4322V36.1H40.4814C39.6073 36.1 38.9358 35.9081 38.4668 35.5244C38.0191 35.1406 37.7845 34.7569 37.7632 34.3731L37.7312 33.8295V33.3178C37.3262 34.064 36.6546 34.7249 35.7166 35.3005C34.7785 35.8762 33.6699 36.164 32.3907 36.164C28.0416 36.0574 25.867 33.563 25.867 28.6809ZM32.4227 35.9081C33.8511 35.9081 35.077 35.5244 36.1003 34.7569C37.1236 33.9894 37.6673 33.2326 37.7312 32.4864V21.2298C36.2176 20.5689 34.9171 20.2384 33.8298 20.2384C31.9324 20.2384 30.504 20.9846 29.5446 22.4769C28.5852 23.948 28.1056 26.016 28.1056 28.6809C28.1056 33.499 29.5446 35.9081 32.4227 35.9081Z"/>
</mask>
<path d="M7.37915 28.6809C7.37915 25.9094 8.05071 23.7668 9.39383 22.2531C10.7369 20.7394 12.7516 19.9826 15.4379 19.9826C16.6957 19.9826 17.9642 20.3024 19.2434 20.9419V12.1477H21.4819V33.8295C21.4819 34.4478 21.5992 34.9274 21.8337 35.2686C22.0895 35.5883 22.3453 35.7589 22.6012 35.7802L22.9529 35.8442H23.9443V36.1H21.9936C21.1195 36.1 20.4479 35.9081 19.9789 35.5244C19.5312 35.1406 19.2967 34.7569 19.2753 34.3731L19.2434 33.8295V33.3178C18.8383 34.064 18.1667 34.7249 17.2287 35.3005C16.2906 35.8762 15.182 36.164 13.9029 36.164C9.55373 36.0574 7.37915 33.563 7.37915 28.6809ZM13.9349 35.9081C15.3632 35.9081 16.5891 35.5244 17.6124 34.7569C18.6358 33.9894 19.1794 33.2326 19.2434 32.4864V21.2298C17.7297 20.5689 16.4292 20.2384 15.3419 20.2384C13.4445 20.2384 12.0161 20.9846 11.0567 22.4769C10.0974 23.948 9.61768 26.016 9.61768 28.6809C9.61768 33.499 11.0567 35.9081 13.9349 35.9081ZM25.867 28.6809C25.867 25.9094 26.5386 23.7668 27.8817 22.2531C29.2248 20.7394 31.2395 19.9826 33.9257 19.9826C35.1836 19.9826 36.4521 20.3024 37.7312 20.9419V12.1477H39.9698V33.8295C39.9698 34.4478 40.087 34.9274 40.3215 35.2686C40.5774 35.5883 40.8332 35.7589 41.089 35.7802L41.4408 35.8442H42.4322V36.1H40.4814C39.6073 36.1 38.9358 35.9081 38.4668 35.5244C38.0191 35.1406 37.7845 34.7569 37.7632 34.3731L37.7312 33.8295V33.3178C37.3262 34.064 36.6546 34.7249 35.7166 35.3005C34.7785 35.8762 33.6699 36.164 32.3907 36.164C28.0416 36.0574 25.867 33.563 25.867 28.6809ZM32.4227 35.9081C33.8511 35.9081 35.077 35.5244 36.1003 34.7569C37.1236 33.9894 37.6673 33.2326 37.7312 32.4864V21.2298C36.2176 20.5689 34.9171 20.2384 33.8298 20.2384C31.9324 20.2384 30.504 20.9846 29.5446 22.4769C28.5852 23.948 28.1056 26.016 28.1056 28.6809C28.1056 33.499 29.5446 35.9081 32.4227 35.9081Z" fill="#FFF7E6"/>
<path d="M9.39383 22.2531L9.37513 22.2365L9.37513 22.2365L9.39383 22.2531ZM19.2434 20.9419L19.2322 20.9643L19.2684 20.9824V20.9419H19.2434ZM19.2434 12.1477V12.1227H19.2184V12.1477H19.2434ZM21.4819 12.1477H21.5069V12.1227H21.4819V12.1477ZM21.8337 35.2686L21.813 35.2828L21.8141 35.2842L21.8337 35.2686ZM22.6012 35.7802L22.6057 35.7555L22.6032 35.7553L22.6012 35.7802ZM22.9529 35.8442L22.9484 35.8692H22.9529V35.8442ZM23.9443 35.8442H23.9693V35.8192H23.9443V35.8442ZM23.9443 36.1V36.125H23.9693V36.1H23.9443ZM19.9789 35.5244L19.9626 35.5434L19.9631 35.5437L19.9789 35.5244ZM19.2753 34.3731L19.3003 34.3718L19.3003 34.3717L19.2753 34.3731ZM19.2434 33.8295H19.2183L19.2184 33.831L19.2434 33.8295ZM19.2434 33.3178H19.2684L19.2214 33.3059L19.2434 33.3178ZM17.2287 35.3005L17.2418 35.3218L17.2287 35.3005ZM13.9029 36.164L13.9023 36.189H13.9029V36.164ZM17.6124 34.7569L17.5974 34.7369L17.5974 34.7369L17.6124 34.7569ZM19.2434 32.4864L19.2684 32.4885V32.4864H19.2434ZM19.2434 21.2298H19.2684V21.2134L19.2534 21.2068L19.2434 21.2298ZM11.0567 22.4769L11.0777 22.4906L11.0778 22.4905L11.0567 22.4769ZM7.40415 28.6809C7.40415 25.9132 8.07476 23.7773 9.41253 22.2697L9.37513 22.2365C8.02666 23.7562 7.35415 25.9055 7.35415 28.6809H7.40415ZM9.41253 22.2697C10.7495 20.763 12.7563 20.0076 15.4379 20.0076V19.9576C12.7469 19.9576 10.7244 20.7159 9.37513 22.2365L9.41253 22.2697ZM15.4379 20.0076C16.6913 20.0076 17.956 20.3262 19.2322 20.9643L19.2545 20.9196C17.9724 20.2785 16.7001 19.9576 15.4379 19.9576V20.0076ZM19.2684 20.9419V12.1477H19.2184V20.9419H19.2684ZM19.2434 12.1727H21.4819V12.1227H19.2434V12.1727ZM21.4569 12.1477V33.8295H21.5069V12.1477H21.4569ZM21.4569 33.8295C21.4569 34.4505 21.5746 34.9358 21.8131 35.2827L21.8543 35.2544C21.6237 34.919 21.5069 34.4451 21.5069 33.8295H21.4569ZM21.8141 35.2842C22.0718 35.6062 22.3333 35.783 22.5991 35.8051L22.6032 35.7553C22.3574 35.7348 22.1072 35.5705 21.8532 35.2529L21.8141 35.2842ZM22.5967 35.8048L22.9485 35.8688L22.9574 35.8196L22.6056 35.7556L22.5967 35.8048ZM22.9529 35.8692H23.9443V35.8192H22.9529V35.8692ZM23.9193 35.8442V36.1H23.9693V35.8442H23.9193ZM23.9443 36.075H21.9936V36.125H23.9443V36.075ZM21.9936 36.075C21.1228 36.075 20.4577 35.8838 19.9947 35.505L19.9631 35.5437C20.4382 35.9325 21.1162 36.125 21.9936 36.125V36.075ZM19.9952 35.5054C19.5499 35.1238 19.3211 34.7458 19.3003 34.3718L19.2504 34.3745C19.2722 34.768 19.5125 35.1575 19.9626 35.5434L19.9952 35.5054ZM19.3003 34.3717L19.2683 33.828L19.2184 33.831L19.2504 34.3746L19.3003 34.3717ZM19.2684 33.8295V33.3178H19.2184V33.8295H19.2684ZM19.2214 33.3059C18.819 34.0472 18.151 34.7052 17.2156 35.2792L17.2418 35.3218C18.1825 34.7446 18.8576 34.0808 19.2653 33.3298L19.2214 33.3059ZM17.2156 35.2792C16.2821 35.8521 15.1782 36.139 13.9029 36.139V36.189C15.1859 36.189 16.2992 35.9002 17.2418 35.3218L17.2156 35.2792ZM13.9035 36.139C11.7336 36.0858 10.1103 35.4372 9.02893 34.1968C7.94713 32.9559 7.40415 31.1187 7.40415 28.6809H7.35415C7.35415 31.1252 7.89846 32.9762 8.99124 34.2297C10.0845 35.4837 11.723 36.1355 13.9023 36.189L13.9035 36.139ZM13.9349 35.9331C15.368 35.9331 16.5993 35.548 17.6274 34.7769L17.5974 34.7369C16.5789 35.5008 15.3585 35.8831 13.9349 35.8831V35.9331ZM17.6274 34.7769C18.6526 34.008 19.2034 33.2455 19.2683 32.4885L19.2185 32.4842C19.1554 33.2196 18.6189 33.9708 17.5974 34.7369L17.6274 34.7769ZM19.2684 32.4864V21.2298H19.2184V32.4864H19.2684ZM19.2534 21.2068C17.738 20.5452 16.434 20.2134 15.3419 20.2134V20.2634C16.4245 20.2634 17.7214 20.5925 19.2334 21.2527L19.2534 21.2068ZM15.3419 20.2134C13.4367 20.2134 12.0001 20.9633 11.0357 22.4634L11.0778 22.4905C12.0322 21.0058 13.4523 20.2634 15.3419 20.2634V20.2134ZM11.0358 22.4633C10.0727 23.94 9.59268 26.0134 9.59268 28.6809H9.64268C9.64268 26.0185 10.122 23.956 11.0777 22.4906L11.0358 22.4633ZM9.59268 28.6809C9.59268 31.0916 9.95255 32.9038 10.6755 34.1141C11.3997 35.3265 12.4873 35.9331 13.9349 35.9331V35.8831C12.5043 35.8831 11.4333 35.2853 10.7184 34.0885C10.0023 32.8897 9.64268 31.0883 9.64268 28.6809H9.59268ZM27.8817 22.2531L27.863 22.2365L27.863 22.2365L27.8817 22.2531ZM37.7312 20.9419L37.7201 20.9643L37.7562 20.9824V20.9419H37.7312ZM37.7312 12.1477V12.1227H37.7062V12.1477H37.7312ZM39.9698 12.1477H39.9948V12.1227H39.9698V12.1477ZM40.3215 35.2686L40.3009 35.2828L40.302 35.2842L40.3215 35.2686ZM41.089 35.7802L41.0935 35.7555L41.0911 35.7553L41.089 35.7802ZM41.4408 35.8442L41.4363 35.8692H41.4408V35.8442ZM42.4322 35.8442H42.4572V35.8192H42.4322V35.8442ZM42.4322 36.1V36.125H42.4572V36.1H42.4322ZM38.4668 35.5244L38.4505 35.5434L38.4509 35.5437L38.4668 35.5244ZM37.7632 34.3731L37.7882 34.3718L37.7882 34.3717L37.7632 34.3731ZM37.7312 33.8295H37.7062L37.7063 33.831L37.7312 33.8295ZM37.7312 33.3178H37.7562L37.7093 33.3059L37.7312 33.3178ZM35.7166 35.3005L35.7296 35.3218L35.7166 35.3005ZM32.3907 36.164L32.3901 36.189H32.3907V36.164ZM36.1003 34.7569L36.0853 34.7369L36.0853 34.7369L36.1003 34.7569ZM37.7312 32.4864L37.7562 32.4885V32.4864H37.7312ZM37.7312 21.2298H37.7562V21.2134L37.7412 21.2068L37.7312 21.2298ZM29.5446 22.4769L29.5656 22.4906L29.5656 22.4905L29.5446 22.4769ZM25.892 28.6809C25.892 25.9132 26.5626 23.7773 27.9004 22.2697L27.863 22.2365C26.5145 23.7562 25.842 25.9055 25.842 28.6809H25.892ZM27.9004 22.2697C29.2374 20.763 31.2442 20.0076 33.9257 20.0076V19.9576C31.2348 19.9576 29.2123 20.7159 27.863 22.2365L27.9004 22.2697ZM33.9257 20.0076C35.1792 20.0076 36.4439 20.3262 37.7201 20.9643L37.7424 20.9196C36.4603 20.2785 35.188 19.9576 33.9257 19.9576V20.0076ZM37.7562 20.9419V12.1477H37.7062V20.9419H37.7562ZM37.7312 12.1727H39.9698V12.1227H37.7312V12.1727ZM39.9448 12.1477V33.8295H39.9948V12.1477H39.9448ZM39.9448 33.8295C39.9448 34.4505 40.0625 34.9358 40.3009 35.2827L40.3421 35.2544C40.1116 34.919 39.9948 34.4451 39.9948 33.8295H39.9448ZM40.302 35.2842C40.5597 35.6062 40.8211 35.783 41.087 35.8051L41.0911 35.7553C40.8453 35.7348 40.5951 35.5705 40.3411 35.2529L40.302 35.2842ZM41.0846 35.8048L41.4363 35.8688L41.4453 35.8196L41.0935 35.7556L41.0846 35.8048ZM41.4408 35.8692H42.4322V35.8192H41.4408V35.8692ZM42.4072 35.8442V36.1H42.4572V35.8442H42.4072ZM42.4322 36.075H40.4814V36.125H42.4322V36.075ZM40.4814 36.075C39.6106 36.075 38.9455 35.8838 38.4826 35.505L38.4509 35.5437C38.926 35.9325 39.6041 36.125 40.4814 36.125V36.075ZM38.483 35.5054C38.0378 35.1238 37.809 34.7458 37.7882 34.3718L37.7383 34.3745C37.7601 34.768 38.0003 35.1575 38.4505 35.5434L38.483 35.5054ZM37.7882 34.3717L37.7562 33.828L37.7063 33.831L37.7383 34.3746L37.7882 34.3717ZM37.7562 33.8295V33.3178H37.7062V33.8295H37.7562ZM37.7093 33.3059C37.3068 34.0472 36.6389 34.7052 35.7035 35.2792L35.7296 35.3218C36.6703 34.7446 37.3455 34.0808 37.7532 33.3298L37.7093 33.3059ZM35.7035 35.2792C34.77 35.8521 33.666 36.139 32.3907 36.139V36.189C33.6738 36.189 34.787 35.9002 35.7296 35.3218L35.7035 35.2792ZM32.3914 36.139C30.2215 36.0858 28.5981 35.4372 27.5168 34.1968C26.435 32.9559 25.892 31.1187 25.892 28.6809H25.842C25.842 31.1252 26.3863 32.9762 27.4791 34.2297C28.5723 35.4837 30.2109 36.1355 32.3901 36.189L32.3914 36.139ZM32.4227 35.9331C33.8559 35.9331 35.0872 35.548 36.1153 34.7769L36.0853 34.7369C35.0668 35.5008 33.8464 35.8831 32.4227 35.8831V35.9331ZM36.1153 34.7769C37.1405 34.008 37.6913 33.2455 37.7561 32.4885L37.7063 32.4842C37.6433 33.2196 37.1068 33.9708 36.0853 34.7369L36.1153 34.7769ZM37.7562 32.4864V21.2298H37.7062V32.4864H37.7562ZM37.7412 21.2068C36.2259 20.5452 34.9218 20.2134 33.8298 20.2134V20.2634C34.9123 20.2634 36.2092 20.5925 37.7212 21.2527L37.7412 21.2068ZM33.8298 20.2134C31.9246 20.2134 30.4879 20.9633 29.5236 22.4634L29.5656 22.4905C30.52 21.0058 31.9402 20.2634 33.8298 20.2634V20.2134ZM29.5237 22.4633C28.5606 23.94 28.0806 26.0134 28.0806 28.6809H28.1306C28.1306 26.0185 28.6099 23.956 29.5656 22.4906L29.5237 22.4633ZM28.0806 28.6809C28.0806 31.0916 28.4404 32.9038 29.1634 34.1141C29.8876 35.3265 30.9751 35.9331 32.4227 35.9331V35.8831C30.9922 35.8831 29.9212 35.2853 29.2063 34.0885C28.4902 32.8897 28.1306 31.0883 28.1306 28.6809H28.0806Z" fill="#FFF7E6" mask="url(#path-2-outside-1_101_5)"/>
</g>
<defs>
<clipPath id="clip0_101_5">
<rect width="50" height="50" fill="white"/>
</clipPath>
</defs>
</svg>
