<svg width="116" height="24" viewBox="0 0 116 24" fill="none" xmlns="http://www.w3.org/2000/svg">
<path d="M0 21.1111V0.888889H5.77778V12.4444H11.5556V9.55556H14.4444V6.66667H20.2222V9.55556H17.3333V12.4444H14.4444V15.3333H17.3333V18.2222H20.2222V21.1111H14.4444V18.2222H11.5556V15.3333H5.77778V21.1111H0ZM26 21.1111V18.2222H23.1111V9.55556H26V6.66667H40.4444V9.55556H43.3333V15.3333H28.8889V18.2222H40.4444V21.1111H26ZM28.8889 12.4444H37.5556V9.55556H28.8889V12.4444ZM49.1111 24V21.1111H60.6667V18.2222H49.1111V15.3333H46.2222V6.66667H52V15.3333H60.6667V6.66667H66.4444V21.1111H63.5556V24H49.1111ZM69.3333 21.1111V18.2222H72.2222V15.3333H75.1111V12.4444H78V9.55556H69.3333V6.66667H89.5556V9.55556H86.6667V12.4444H83.7778V15.3333H80.8889V18.2222H89.5556V21.1111H69.3333ZM92.4444 21.1111V18.2222H95.3333V15.3333H98.2222V12.4444H101.111V9.55556H92.4444V6.66667H112.667V9.55556H109.778V12.4444H106.889V15.3333H104V18.2222H112.667V21.1111H92.4444Z" fill="url(#paint0_radial_101_26)"/>
<defs>
<radialGradient id="paint0_radial_101_26" cx="0" cy="0" r="1" gradientUnits="userSpaceOnUse" gradientTransform="translate(55.2381 7.66309) rotate(-84.6183) scale(19.6316 110.837)">
<stop stop-color="#FFF7E6"/>
<stop offset="1" stop-opacity="0.83"/>
</radialGradient>
</defs>
</svg>
