<svg width="50" height="50" viewBox="0 0 50 50" fill="none" xmlns="http://www.w3.org/2000/svg">
<rect width="50" height="50" rx="3.06667" fill="#191A23"/>
<path d="M18.7863 33.5554V31.5878H26.657V29.6201H18.7863V27.6524H16.8187V21.7494H20.754V27.6524H26.657V21.7494H30.5923V31.5878H28.6247V33.5554H18.7863Z" fill="url(#paint0_radial_101_10)"/>
<path d="M2.91667 29.449V15.6753H6.85201V23.546H10.7873V21.5783H12.755V19.6107H16.6903V21.5783H14.7227V23.546H12.755V25.5137H14.7227V27.4814H16.6903V29.449H12.755V27.4814H10.7873V25.5137H6.85201V29.449H2.91667Z" fill="url(#paint1_radial_101_10)"/>
<path d="M31.7901 29.449V27.4814H33.7577V25.5137H35.7254V23.546H37.6931V21.5783H31.7901V19.6107H45.5637V21.5783H43.5961V23.546H41.6284V25.5137H39.6607V27.4814H45.5637V29.449H31.7901Z" fill="url(#paint2_radial_101_10)"/>
<defs>
<radialGradient id="paint0_radial_101_10" cx="0" cy="0" r="1" gradientUnits="userSpaceOnUse" gradientTransform="translate(25.1002 22.5937) rotate(-88.9299) scale(14.7815 16.6879)">
<stop stop-color="#FFF7E6"/>
<stop offset="1" stop-opacity="0.83"/>
</radialGradient>
<radialGradient id="paint1_radial_101_10" cx="0" cy="0" r="1" gradientUnits="userSpaceOnUse" gradientTransform="translate(11.1982 20.4549) rotate(-88.9299) scale(14.7815 16.6879)">
<stop stop-color="#FFF7E6"/>
<stop offset="1" stop-opacity="0.83"/>
</radialGradient>
<radialGradient id="paint2_radial_101_10" cx="0" cy="0" r="1" gradientUnits="userSpaceOnUse" gradientTransform="translate(40.0716 20.4549) rotate(-88.9299) scale(14.7815 16.6879)">
<stop stop-color="#FFF7E6"/>
<stop offset="1" stop-opacity="0.83"/>
</radialGradient>
</defs>
</svg>
